<?xml version="1.0" encoding="UTF-8"?>
<svg version="1.1" xmlns="http://www.w3.org/2000/svg" width="100%" height="100%" viewBox="400 3650 3700 770">
<style>
  path[transform*="translate(2211.109375,603.822998046875)"],
  path[transform*="translate(2857,940)"],
  path[transform*="translate(1185,3271)"],
  path[transform*="translate(1590,940)"],
  path[transform*="translate(3157,1201)"],
  path[transform*="translate(1289,1201)"],
  path[transform*="translate(3519,649)"],
  path[transform*="translate(928,649)"],
  path[transform*="translate(3991.16796875,154.71875)"],
  path[transform*="translate(2197,2167)"],
  path[transform*="translate(2197,2048)"],
  path[transform*="translate(3888,223)"],
  path[transform*="translate(3789,223)"] {
    display: none !important;
  }
</style>
<path d="M0 0 C235.29 0 470.58 0 713 0 C713 38.28 713 76.56 713 116 C530.18 116 347.36 116 159 116 C159.33 130.52 159.66 145.04 160 160 C160 197.95 160 235.9 160 275 C267.25 275 374.5 275 485 275 C486.12575108 316.6527899 486 358.33200002 486 400 C378.42 400 270.84 400 160 400 C160 449.83 160 499.66 160 551 C159.67 555.95 159.34 560.9 159 566 C160.77757911 565.99907821 162.55515821 565.99815641 164.38660336 565.99720669 C207.59700499 565.97504882 250.80740597 565.95882042 294.01781222 565.94893467 C299.45743146 565.94768549 304.8970507 565.94639103 310.33666992 565.94506836 C311.41859488 565.94480605 312.50051983 565.94454374 313.61523039 565.94427348 C328.55506025 565.94055878 343.4948873 565.93445847 358.43471535 565.92626567 C384.3718411 565.91204491 410.30896389 565.9030461 436.24609375 565.90234375 C437.78988753 565.90228589 437.78988753 565.90228589 439.36486906 565.90222687 C515.05191822 565.9003307 590.73563198 566.19466043 666.42124939 566.64744568 C667.30597156 566.65273696 668.19069373 566.65802825 669.10222567 566.66347987 C686.73485891 566.76937734 704.36741691 566.88573776 722 567 C722 608.25 722 649.5 722 692 C483.74 692 245.48 692 0 692 C0 463.64 0 235.28 0 0 Z " fill="#F4F4F4" transform="translate(3347,3689)"/>
<path d="M0 0 C0.87986903 -0.00205263 1.75973805 -0.00410527 2.66626978 -0.0062201 C5.60533967 -0.0118604 8.54436226 -0.01043654 11.48343658 -0.00901413 C13.61573544 -0.01159947 15.74803381 -0.0146131 17.88033152 -0.01801753 C23.73319459 -0.02607093 29.58604539 -0.02787618 35.43891335 -0.028615 C41.75407107 -0.03046844 48.06922247 -0.03801724 54.38437653 -0.04475021 C68.90999828 -0.05902966 83.43561682 -0.06485852 97.96124427 -0.06944216 C105.14440879 -0.07178067 112.32757251 -0.0753836 119.5107364 -0.07913754 C144.1155144 -0.09197076 168.72029197 -0.10269015 193.32507324 -0.10614014 C194.86863888 -0.10636177 196.41220452 -0.10658355 197.95577016 -0.10680549 C199.50298971 -0.10702613 201.05020925 -0.10724661 202.5974288 -0.10746694 C205.70123641 -0.10790948 208.80504402 -0.1083566 211.90885162 -0.10880661 C212.67841126 -0.108916 213.44797089 -0.10902539 214.24085052 -0.1091381 C239.18582751 -0.11276758 264.13077542 -0.12868468 289.07574128 -0.15199697 C315.46973436 -0.17661821 341.86371081 -0.19031404 368.2577157 -0.19150805 C371.15764777 -0.1916795 374.05757984 -0.19189492 376.9575119 -0.19214249 C377.67151916 -0.19219826 378.38552641 -0.19225402 379.12117025 -0.19231148 C390.58868291 -0.19345992 402.05616562 -0.20446418 413.52366818 -0.21902954 C425.05989481 -0.23342832 436.5960693 -0.23636092 448.13230509 -0.22858956 C454.37638287 -0.22468942 460.6203603 -0.22558173 466.86442566 -0.23964691 C472.58898952 -0.2524236 478.313378 -0.25115522 484.03794175 -0.2390562 C486.10054735 -0.23710573 488.16316554 -0.24014729 490.22575349 -0.24890056 C505.97990248 -0.31148506 520.72934039 1.28233518 535.91275787 5.69392776 C536.77143463 5.94223343 537.63011139 6.19053909 538.51480865 6.44636917 C563.8641 14.09889964 597.2338067 27.0815058 612.38150787 50.49861526 C614.77509841 55.16611681 615.96809517 59.4054809 616.33669281 64.59180069 C616.46063164 66.29559135 616.46063164 66.29559135 616.58707428 68.03380203 C616.6738443 69.28184616 616.76061432 70.52989029 616.85001373 71.81575394 C616.94448288 73.13029053 617.03895203 74.44482712 617.13628387 75.79919815 C617.39611321 79.41650906 617.65105412 83.03414989 617.9050796 86.6518724 C618.17375765 90.46745565 618.44666887 94.28273626 618.71904755 98.09805679 C619.17808711 104.53664932 619.63417192 110.97544567 620.08829498 117.41438675 C620.60721079 124.77182079 621.12963551 132.12899812 621.65431684 139.48602313 C622.21834199 147.39474208 622.78019135 155.30361444 623.34117818 163.21254945 C623.49968669 165.44582713 623.65851653 167.67908177 623.81740379 169.91233253 C625.26765082 190.3125499 626.60739034 210.71749039 627.85025787 231.13142776 C610.88962255 233.82055637 593.92855459 236.50693769 576.9669857 239.19017124 C569.0890074 240.43649072 561.21116591 241.68366259 553.33365631 242.93294144 C546.45658066 244.02356109 539.57923799 245.11247938 532.7015878 246.19947022 C529.06999298 246.77349006 525.43852481 247.34828275 521.80737686 247.92512321 C505.51201682 250.51319727 489.21225349 252.99726319 472.85025787 255.13142776 C472.20349897 235.94088751 471.72007267 216.74783717 471.35462189 197.5498848 C471.31157408 195.30880512 471.26703515 193.06775334 471.22064972 190.82674026 C470.71048485 165.92403497 470.85025787 141.04765406 470.85025787 116.13142776 C325.32025787 116.13142776 179.79025787 116.13142776 29.85025787 116.13142776 C29.85025787 185.76142776 29.85025787 255.39142776 29.85025787 327.13142776 C29.71711093 372.02810067 29.56798307 416.92284993 29.35025787 461.81892776 C29.18525787 497.56205276 29.02025787 533.30517776 28.85025787 570.13142776 C174.05025787 570.46142776 319.25025787 570.79142776 468.85025787 571.13142776 C468.85025787 556.94142776 468.85025787 542.75142776 468.85025787 528.13142776 C468.95417867 519.37424762 469.07273894 510.62114316 469.25260162 501.86580276 C469.29528562 499.65716886 469.33772354 497.4485302 469.37993622 495.23988724 C469.46718011 490.72418326 469.55732563 486.20855062 469.64981842 481.6929512 C469.76779561 475.92069641 469.8778215 470.14831878 469.98582363 464.37586975 C470.0710824 459.86510798 470.16042366 455.35443422 470.25101662 450.8437767 C470.29334645 448.71161503 470.33441046 446.57942782 470.37413597 444.44721603 C470.42963209 441.50038011 470.49065394 438.55370862 470.55313873 435.6070137 C470.56824493 434.74596024 470.58335114 433.88490677 470.5989151 432.99776077 C470.70525455 428.29082089 471.08100844 423.77759586 471.85025787 419.13142776 C481.08616502 420.44945238 490.19021686 422.15396104 499.31363678 424.09651566 C500.70962031 424.39105168 502.10566928 424.68527763 503.50177765 424.97922134 C507.24971704 425.76927961 510.99671058 426.56373815 514.74351549 427.35915685 C518.67868942 428.19386323 522.61467104 429.02474474 526.55054474 429.85614395 C533.14592076 431.24991334 539.74071061 432.64642798 546.33512115 434.04475784 C553.95828468 435.66121108 561.58223441 437.27391166 569.20663893 438.88450056 C577.34203752 440.60306929 585.47687034 442.32430396 593.61153364 444.04634929 C595.95181032 444.54158189 598.2921911 445.03631987 600.63259506 445.53095055 C604.30199705 446.30659841 607.97101611 447.08403278 611.6397438 447.86286354 C612.98646399 448.14847498 614.33331038 448.43349209 615.68029022 448.71787643 C617.51590466 449.10553439 619.35101836 449.49556114 621.18610382 449.88571548 C622.21361063 450.10342637 623.24111744 450.32113726 624.29976082 450.54544544 C626.85025787 451.13142776 626.85025787 451.13142776 629.85025787 452.13142776 C629.92107823 462.68810366 629.97371589 473.24471935 630.00569439 483.80158806 C630.02107465 488.70833468 630.04177655 493.61491412 630.07657623 498.52156448 C630.35406523 538.75358372 628.74931793 578.86834095 619.85025787 618.25642776 C619.61331207 619.30540237 619.37636627 620.35437698 619.1322403 621.4351387 C614.56653156 640.57796093 604.84609683 653.1242072 588.21353912 663.55720901 C569.89328936 674.58332457 550.16248185 682.67026139 529.47525787 688.00642776 C528.37286774 688.29332474 528.37286774 688.29332474 527.24820709 688.58601761 C513.6973878 691.84710002 500.12334389 692.42095092 486.26680756 692.33072281 C484.56126373 692.32729215 482.85571785 692.32478506 481.1501714 692.32311332 C477.48588103 692.3175963 473.82168749 692.30575575 470.1574322 692.28883302 C464.21450271 692.26142141 458.27158707 692.24817276 452.32860851 692.23661137 C444.91685097 692.22118621 437.5051186 692.20212549 430.09338257 692.17851042 C416.3721691 692.13481453 402.65103286 692.11436954 388.92975616 692.10539627 C386.84004372 692.10394575 384.75033128 692.10248928 382.66061884 692.10102695 C379.49923707 692.0988292 376.33785529 692.09664167 373.17647347 692.09451615 C361.15291931 692.08614435 349.129374 692.07152053 337.10582733 692.05591202 C335.99108475 692.05446859 334.87634216 692.05302516 333.72781949 692.051538 C300.99191236 692.00873335 268.25602172 691.95393058 235.52013874 691.89571285 C230.45464143 691.88675127 225.38914403 691.87784127 220.32364655 691.86897659 C219.06559645 691.86677291 217.80754636 691.86456923 216.51137354 691.86229876 C195.91518222 691.82654078 175.31899116 691.80186407 154.72277991 691.78108075 C133.38406995 691.75931849 112.0453991 691.72631707 90.70672244 691.6827262 C77.6339046 691.65636102 64.56113514 691.63855501 51.48829206 691.63208172 C42.58151378 691.62682545 33.67479746 691.61060084 24.76805244 691.58576211 C19.64363916 691.57178822 14.5193367 691.56256183 9.39490318 691.5664196 C4.69939065 691.56984782 0.0041145 691.55936315 -4.69134966 691.53819225 C-6.38069716 691.53295821 -8.07006944 691.53265345 -9.75941648 691.53803214 C-41.83344431 691.62970055 -68.99215381 679.03924148 -92.14974213 657.13142776 C-92.9618515 656.38377151 -93.77396088 655.63611526 -94.61067963 654.86580276 C-117.32629416 633.22505958 -131.60766626 602.48090338 -132.49225702 571.07212919 C-132.55407637 566.83166967 -132.54752248 562.5928816 -132.53069305 558.35211563 C-132.53415847 556.42241196 -132.53892891 554.49271028 -132.54487479 552.56301266 C-132.55729298 547.31191143 -132.55125666 542.06097567 -132.54191613 536.80987418 C-132.53508805 531.12677479 -132.54562536 525.44370255 -132.5538559 519.76060867 C-132.56715526 508.64805064 -132.56433253 497.5355536 -132.55561797 486.42299324 C-132.54882719 477.38752212 -132.54793073 468.35206802 -132.55118942 459.31659508 C-132.55164912 458.02784849 -132.55210882 456.73910189 -132.55258245 455.41130238 C-132.55354168 452.79278842 -132.55451432 450.17427446 -132.55550022 447.55576051 C-132.56379966 423.73388267 -132.55521105 399.91203938 -132.53947243 376.09016705 C-132.52523568 354.37644519 -132.52651276 332.66277612 -132.54085541 310.94905472 C-132.55694339 286.511779 -132.56322072 262.07453716 -132.55401862 237.63725621 C-132.55306302 235.0289857 -132.55211991 232.4207152 -132.55118942 229.81244469 C-132.5507266 228.52930708 -132.55026377 227.24616947 -132.54978692 225.9241489 C-132.54720228 216.90447869 -132.55155664 207.88482728 -132.55862808 198.86515999 C-132.5670622 187.8662232 -132.56472273 176.86735061 -132.54878585 165.86842113 C-132.54092911 160.26224141 -132.53776709 154.65616851 -132.54773331 149.0499897 C-132.55673461 143.90865224 -132.55165861 138.76751969 -132.53580065 133.62620056 C-132.53247574 131.77584477 -132.53409465 129.92547131 -132.54142801 128.07512706 C-132.59497684 113.4294317 -131.38405885 99.07172221 -126.52474213 85.13142776 C-126.14624115 84.02988358 -126.14624115 84.02988358 -125.76009369 82.90608597 C-116.17514307 56.22265478 -97.17822393 34.81549998 -73.14974213 20.13142776 C-72.56321869 19.76468948 -71.97669525 19.3979512 -71.37239838 19.02009964 C-50.45938642 6.14508208 -24.42747738 -0.05385808 0 0 Z " fill="#F4F4F4" transform="translate(2532.149742126465,3688.8685722351074)"/>
<path d="M0 0 C1.79833984 2.34716797 1.79833984 2.34716797 3.4609375 5.4921875 C3.76803146 6.06072449 4.07512543 6.62926147 4.39152527 7.21502686 C5.40192677 9.09364642 6.38798181 10.98400623 7.375 12.875 C8.08139138 14.19679679 8.78967127 15.51758591 9.49975586 16.83740234 C10.96191146 19.5579417 12.41639023 22.28237502 13.86572266 25.00976562 C17.01856944 30.92564751 20.29262142 36.77313738 23.5625 42.625 C24.80382828 44.85652454 26.04471319 47.08829577 27.28515625 49.3203125 C27.89762207 50.42149414 28.51008789 51.52267578 29.14111328 52.65722656 C32.26258349 58.2704614 35.3811369 63.8853163 38.5 69.5 C39.74998618 71.75000768 40.99998618 74.00000768 42.25 76.25 C104.125 187.625 166 299 244.75 440.75 C245.67969604 442.42328369 245.67969604 442.42328369 246.62817383 444.13037109 C247.86798199 446.36225218 249.10740769 448.59434578 250.34643555 450.82666016 C253.27246429 456.0972904 256.20234079 461.36567053 259.14590454 466.62652588 C260.53530872 469.11027914 261.92252347 471.59525197 263.30957031 474.08032227 C264.28888196 475.83273704 265.27135561 477.58338359 266.25390625 479.33398438 C266.846875 480.39681641 267.43984375 481.45964844 268.05078125 482.5546875 C268.57325439 483.48780762 269.09572754 484.42092773 269.6340332 485.38232422 C270.93529045 487.87599359 272.00685235 490.37043277 273 493 C273.66 493 274.32 493 275 493 C275.40943848 491.68080566 275.40943848 491.68080566 275.82714844 490.33496094 C276.92048464 487.22609906 278.18996128 484.52812523 279.765625 481.640625 C280.31871338 480.62081543 280.87180176 479.60100586 281.44165039 478.55029297 C282.33678345 476.91664795 282.33678345 476.91664795 283.25 475.25 C284.19966964 473.50223386 285.14933188 471.75446364 286.098526 470.00643921 C287.08168235 468.19720274 288.06685142 466.38907286 289.05224609 464.58105469 C292.07797675 459.02440237 295.06768625 453.44835345 298.0625 447.875 C303.06167725 438.5860446 308.08027111 429.30775381 313.10791016 420.03417969 C319.42973432 408.36929579 325.71407775 396.68425702 332 385 C339.3515114 371.33502845 346.71237497 357.67538245 354.10791016 344.03417969 C360.42973432 332.36929579 366.71407775 320.68425702 373 309 C380.3515114 295.33502845 387.71237497 281.67538245 395.10791016 268.03417969 C401.42973432 256.36929579 407.71407775 244.68425702 414 233 C421.3515114 219.33502845 428.71237497 205.67538245 436.10791016 192.03417969 C442.42973432 180.36929579 448.71407775 168.68425702 455 157 C462.3515114 143.33502845 469.71237497 129.67538245 477.10791016 116.03417969 C483.42973432 104.36929579 489.71407775 92.68425702 496 81 C503.34374711 67.34946069 510.69153424 53.7013113 518.0859375 40.078125 C521.00129786 34.70359758 523.90187631 29.32148948 526.78515625 23.9296875 C527.42181801 22.7408549 528.05853635 21.55205259 528.6953125 20.36328125 C529.9101018 18.09381087 531.12247216 15.82304348 532.33203125 13.55078125 C532.88375 12.52082031 533.43546875 11.49085938 534.00390625 10.4296875 C534.48674072 9.52460449 534.9695752 8.61952148 535.46704102 7.68701172 C535.97291748 6.80029785 536.47879395 5.91358398 537 5 C537.51353027 3.90703613 538.02706055 2.81407227 538.55615234 1.68798828 C541.27406658 -1.30144586 541.6244051 -1.41474115 545.42602539 -1.62109375 C547.3173223 -1.59115412 549.20824261 -1.52703473 551.09765625 -1.4375 C552.68328621 -1.39967407 552.68328621 -1.39967407 554.3009491 -1.36108398 C557.88951755 -1.26892666 561.47526624 -1.133949 565.0625 -1 C567.61742641 -0.92660775 570.1724456 -0.85638828 572.72753906 -0.7890625 C576.95853662 -0.67615163 581.18930055 -0.5588658 585.41976929 -0.42749023 C598.15724087 -0.03272399 610.89574562 0.24534878 623.63671875 0.5 C625.68714045 0.54150756 627.73756058 0.58309293 629.78797913 0.62475586 C632.87163366 0.68738318 635.9552882 0.75000921 639.0389452 0.81251526 C649.00940814 1.01480981 658.97982328 1.2183588 668.94988441 1.43969727 C670.75255022 1.47918008 672.55524254 1.51747457 674.35796165 1.55444336 C684.93308225 1.77196054 695.45247416 2.18478966 706 3 C701.11052355 13.0754839 695.88635087 22.87253675 690.33862305 32.60083008 C685.86643241 40.44730155 681.47828397 48.33724224 677.125 56.25 C675.76450643 58.72145522 674.403772 61.19277778 673.04296875 63.6640625 C672.70598465 64.27614059 672.36900055 64.88821869 672.02180481 65.5188446 C666.66639004 75.24201001 661.26347342 84.93885932 655.86767578 94.63964844 C653.97067513 98.05276177 652.0767217 101.46754978 650.18359375 104.8828125 C644.34999712 115.40329416 638.49882567 125.91208833 632.5625 136.375 C626.6453963 146.80749992 620.8478847 157.30405584 615.0635376 167.8104248 C614.72674988 168.42212524 614.38996216 169.03382568 614.04296875 169.6640625 C613.53754547 170.58209656 613.53754547 170.58209656 613.02191162 171.51867676 C607.66482929 181.24473233 602.26057887 190.94466451 596.86328125 200.6484375 C594.98021129 204.03559478 593.09916827 207.42386997 591.21875 210.8125 C584.5923106 222.7522307 577.94512447 234.67987098 571.26708984 246.59082031 C565.11171327 257.57479007 559.00067614 268.58327502 552.89111328 279.59277344 C549.76254948 285.22951968 546.63113923 290.8646841 543.5 296.5 C542.24998618 298.74999232 540.99998618 300.99999232 539.75 303.25 C537.25 307.75 534.75 312.25 532.25 316.75 C531.63116943 317.86391113 531.01233887 318.97782227 530.37475586 320.12548828 C529.12562495 322.37389139 527.87643881 324.62226382 526.62719727 326.87060547 C523.48844509 332.5197867 520.35067557 338.1695096 517.21484375 343.8203125 C510.58931321 355.75721877 503.94370133 367.68240929 497.26708984 379.59082031 C491.11171327 390.57479007 485.00067614 401.58327502 478.89111328 412.59277344 C475.76254948 418.22951968 472.63113923 423.8646841 469.5 429.5 C468.24998618 431.74999232 466.99998618 433.99999232 465.75 436.25 C463.25 440.75 460.75 445.25 458.25 449.75 C457.3216333 451.4211084 457.3216333 451.4211084 456.37451172 453.12597656 C455.12624991 455.37278279 453.87787776 457.61952773 452.62939453 459.86621094 C449.47688621 465.53957447 446.32638684 471.21403722 443.1796875 476.890625 C437.34706716 487.40831798 431.49738889 497.91462069 425.5625 508.375 C419.6453963 518.80749992 413.8478847 529.30405584 408.0635376 539.8104248 C407.72674988 540.42212524 407.38996216 541.03382568 407.04296875 541.6640625 C406.7060199 542.27608521 406.36907104 542.88810791 406.02191162 543.51867676 C400.66482929 553.24473233 395.26057887 562.94466451 389.86328125 572.6484375 C387.98021129 576.03559478 386.09916827 579.42386997 384.21875 582.8125 C377.59310539 594.75079862 370.94730427 606.67734227 364.26928711 618.58642578 C359.99429822 626.21402922 355.7428776 633.85449451 351.5 641.5 C346.38456287 650.71368359 341.26363888 659.92423791 336.125 669.125 C335.22297852 670.74438477 335.22297852 670.74438477 334.30273438 672.39648438 C333.75166016 673.38197266 333.20058594 674.36746094 332.6328125 675.3828125 C332.14699707 676.25309082 331.66118164 677.12336914 331.16064453 678.02001953 C330 680 330 680 329 681 C327.61349714 681.19952408 326.21759231 681.33398843 324.82104492 681.44287109 C323.88819168 681.51631744 322.95533844 681.58976379 321.99421692 681.66543579 C320.40959908 681.78077164 320.40959908 681.78077164 318.79296875 681.8984375 C317.66263718 681.98282074 316.5323056 682.06720398 315.36772156 682.15414429 C297.04831506 683.476696 278.70406633 684.43900801 260.36572266 685.45513916 C256.25710953 685.68371485 252.1486971 685.91579291 248.04028034 686.1478672 C244.05891574 686.37239283 240.07744497 686.59498638 236.09593773 686.81696701 C234.20654506 686.92248653 232.31718206 687.02853876 230.42785072 687.13515091 C227.80267069 687.28294487 225.17736176 687.4281931 222.55200195 687.57275391 C221.78580032 687.61636551 221.01959869 687.65997711 220.23017883 687.70491028 C215.8122898 687.94501697 211.42447834 688.03984027 207 688 C206.02083333 686.28645833 205.04166667 684.57291667 204.0625 682.859375 C203.42296387 681.74022705 202.78342773 680.6210791 202.12451172 679.46801758 C200.688455 676.95493925 199.25260739 674.44174159 197.81689453 671.9284668 C194.17034656 665.54543697 190.52180213 659.16357132 186.8671875 652.78515625 C185.53610117 650.46114185 184.20539365 648.13691099 182.875 645.8125 C182.54389221 645.2340332 182.21278442 644.65556641 181.87164307 644.05957031 C177.15623118 635.81727457 172.49775768 627.54461112 167.875 619.25 C162.77785402 610.10554429 157.55001254 601.04640908 152.24951172 592.01855469 C147.47076913 583.85881504 142.84823314 575.61791893 138.25 567.35546875 C134.25035548 560.18646305 130.15651956 553.07907237 126 546 C120.62803207 536.85086711 115.40923475 527.62596869 110.25 518.35546875 C106.25035341 511.18645936 102.15637028 504.07916232 98 497 C92.68160725 487.93815741 87.50128891 478.80807301 82.38623047 469.63012695 C78.012484 461.78903143 73.58512833 453.97969078 69.125 446.1875 C68.79163635 445.60504517 68.45827271 445.02259033 68.11480713 444.42248535 C66.42126286 441.46406468 64.72692174 438.50610134 63.03222656 435.54833984 C60.01631711 430.28378943 57.00739789 425.015245 53.99798584 419.74697876 C52.33228029 416.83115361 50.66611686 413.91559013 49 411 C48.33333114 409.83333459 47.66666448 408.66666792 47 407.5 C46.67 406.9225 46.34 406.345 46 405.75 C11.00000001 344.50000001 11.00000001 344.50000001 10.00003052 342.75004578 C9.33327089 341.58322151 8.6665025 340.41640226 7.99972534 339.24958801 C6.33440912 336.33537354 4.66924463 333.42107258 3.00439453 330.5065918 C-0.01154606 325.22724336 -3.02862341 319.94856056 -6.05130005 314.67306519 C-7.7432784 311.71996984 -9.43437464 308.76637011 -11.125 305.8125 C-11.45755798 305.23149536 -11.79011597 304.65049072 -12.13275146 304.05187988 C-16.84669898 295.81214849 -21.50367995 287.54203158 -26.125 279.25 C-31.22214598 270.10554429 -36.44998746 261.04640908 -41.75048828 252.01855469 C-46.52923087 243.85881504 -51.15176686 235.61791893 -55.75 227.35546875 C-59.74964452 220.18646305 -63.84348044 213.07907237 -68 206 C-73.37196793 196.85086711 -78.59076525 187.62596869 -83.75 178.35546875 C-87.74964659 171.18645936 -91.84362972 164.07916232 -96 157 C-101.31839275 147.93815741 -106.49871109 138.80807301 -111.61376953 129.63012695 C-115.987516 121.78903143 -120.41487167 113.97969078 -124.875 106.1875 C-125.20836365 105.60504517 -125.54172729 105.02259033 -125.88519287 104.42248535 C-127.57873714 101.46406468 -129.27307826 98.50610134 -130.96777344 95.54833984 C-133.98368289 90.28378943 -136.99260211 85.015245 -140.00201416 79.74697876 C-141.66771971 76.83115361 -143.33388314 73.91559013 -145 71 C-145.66666886 69.83333459 -146.33333552 68.66666792 -147 67.5 C-147.495 66.63375 -147.495 66.63375 -148 65.75 C-151 60.5 -151 60.5 -151.99978638 58.75035095 C-152.66713883 57.58249942 -153.33451762 56.41466294 -154.00192261 55.24684143 C-155.65831198 52.34842501 -157.31415637 49.44970056 -158.96923828 46.55053711 C-162.09143833 41.08263672 -165.21781532 35.61728919 -168.35906982 30.16030884 C-169.84242555 27.58283345 -171.32340378 25.00399578 -172.80419922 22.42504883 C-173.5106931 21.19617473 -174.21835101 19.96796901 -174.92724609 18.74047852 C-175.91017321 17.03831926 -176.88877111 15.3336623 -177.8671875 13.62890625 C-178.42519043 12.66025635 -178.98319336 11.69160645 -179.55810547 10.69360352 C-180.90626107 8.17511373 -181.99936551 5.67291526 -183 3 C-178.20210576 2.23557644 -173.55605464 1.84666863 -168.70004272 1.75912476 C-167.64893183 1.73840878 -167.64893183 1.73840878 -166.57658637 1.71727431 C-164.24691523 1.67243612 -161.91718461 1.63381064 -159.58740234 1.59521484 C-157.9097681 1.56424821 -156.23214064 1.53291229 -154.55451965 1.50123596 C-150.01142251 1.41664466 -145.46824468 1.33761105 -140.92502546 1.25988722 C-137.13001624 1.19445612 -133.33505799 1.12629799 -129.54009688 1.0581423 C-120.58929793 0.89743108 -111.63842833 0.74121423 -102.6875 0.58789062 C-93.45389525 0.42965465 -84.22043856 0.26425912 -74.98702466 0.09528005 C-67.05487931 -0.04965684 -59.12266697 -0.19037659 -51.19038546 -0.32765996 C-46.45460933 -0.40965098 -41.71887388 -0.4931957 -36.98319626 -0.58070755 C-32.53291551 -0.66274412 -28.08257447 -0.73950516 -23.63213158 -0.81219673 C-21.99905961 -0.83974525 -20.3660177 -0.86914718 -18.73301506 -0.90053749 C-16.50405777 -0.94308623 -14.27508936 -0.97893227 -12.04598999 -1.01309204 C-10.79867788 -1.03483805 -9.55136578 -1.05658405 -8.26625633 -1.07898903 C-5.32901173 -1.00795661 -2.8131579 -0.83653012 0 0 Z " fill="#F4F4F4" transform="translate(616,3691)"/>
<path d="M0 0 C1.81975342 -0.01925285 1.81975342 -0.01925285 3.67626953 -0.03889465 C5.63862549 -0.04997505 5.63862549 -0.04997505 7.640625 -0.0612793 C8.31591248 -0.06535482 8.99119995 -0.06943035 9.68695068 -0.07362938 C13.27729987 -0.09447228 16.86761131 -0.10876878 20.45800781 -0.11816406 C23.38465775 -0.12693516 26.31081903 -0.14759631 29.23730469 -0.1796875 C74.11303157 -0.66094525 110.25467384 11.3082016 143.62890625 42.1027832 C145.67387167 43.97821781 147.76681975 45.76732728 149.890625 47.55200195 C165.59327424 61.34275178 177.54373499 79.19421573 187.890625 97.17700195 C188.25494629 97.79720215 188.61926758 98.41740234 188.99462891 99.05639648 C212.32809138 138.98935642 217.01983438 183.99588256 217.06945783 229.26402228 C217.07442939 232.81214385 217.08505149 236.36024969 217.09489411 239.90836048 C217.11356104 246.95638906 217.12704594 254.00441876 217.13888957 261.05246173 C217.15341542 269.56005 217.17342435 278.06762333 217.19346653 286.57520009 C217.23302239 303.46039067 217.26668378 320.34558944 217.29792813 337.23079722 C217.32591881 352.35344666 217.35604517 367.4760902 217.38789368 382.59873199 C217.59771475 482.49132971 217.75344339 582.38398869 217.87319946 682.2767334 C217.87531807 684.04283403 217.87531807 684.04283403 217.87747948 685.84461347 C217.94172222 739.47386958 217.99988251 793.10313026 218.05022621 846.73240122 C218.07143574 869.31054574 218.0934243 891.8886895 218.11587471 914.46683283 C218.11962988 918.24829003 218.12336164 922.02974725 218.12709271 925.81120447 C218.20594231 1005.42868075 218.3526129 1085.04584288 218.53859469 1164.6631358 C218.67433931 1222.78557497 218.79914211 1280.90794088 218.850214 1339.03052521 C218.85127112 1340.22766935 218.85232824 1341.42481349 218.85341739 1342.65823472 C218.87642855 1368.94830803 218.89368787 1395.23838193 218.90552729 1421.52846255 C218.91038894 1432.10882421 218.91605442 1442.6891854 218.92198563 1453.26954651 C218.92261456 1454.42742769 218.92324349 1455.58530888 218.92389148 1456.77827737 C218.94448571 1493.97321279 219.03109746 1531.16762802 219.15281504 1568.36235907 C219.2752395 1605.87164532 219.33104093 1643.3804118 219.29654753 1680.88989961 C219.29177786 1686.09300912 219.28775389 1691.29611897 219.28417969 1696.49922943 C219.28345187 1697.51902357 219.28272405 1698.5388177 219.28197418 1699.58951469 C219.27245233 1715.62657823 219.3329873 1731.66255061 219.42399232 1747.69932613 C219.51237316 1763.53508101 219.52367542 1779.36942887 219.45741725 1795.205305 C219.42410187 1803.6497724 219.42173064 1812.09093697 219.51885061 1820.5350036 C219.97041651 1861.67526391 215.25538471 1894.07076258 198.54403885 1931.99347407 C194.5662296 1941.10196964 191.25840763 1950.4599897 187.91737544 1959.81618851 C186.13567227 1964.78051108 184.30789186 1969.72791998 182.484375 1974.67700195 C181.86369141 1976.36696289 181.86369141 1976.36696289 181.23046875 1978.09106445 C176.62583388 1990.62289424 172.00773013 2003.14976261 167.390625 2015.67700195 C160.81926078 2033.50708507 154.25405067 2051.33939862 147.703125 2069.17700195 C147.33619537 2070.17610596 146.96926575 2071.17520996 146.59121704 2072.20458984 C144.02395137 2079.19524642 141.45722107 2086.18609951 138.890625 2093.17700195 C135.95350407 2101.17714118 133.01612685 2109.17718619 130.078125 2117.17700195 C129.71143707 2118.17546143 129.34474915 2119.1739209 128.96694946 2120.20263672 C122.33980549 2138.24612476 115.69563597 2156.28332014 109.04818726 2174.31933594 C102.98583108 2190.76828886 96.93241071 2207.22048257 90.890625 2223.67700195 C83.96135241 2242.55084393 77.01457504 2261.41819275 70.0614624 2280.28326416 C62.97451511 2299.51216809 55.90060726 2318.7458259 48.83789062 2337.98364258 C48.1497488 2339.85799492 47.46159801 2341.73234397 46.7734375 2343.60668945 C46.44784851 2344.49350403 46.12225952 2345.3803186 45.7868042 2346.29400635 C42.49511748 2355.25759902 39.19388536 2364.21766898 35.890625 2373.17700195 C34.900625 2373.17700195 33.910625 2373.17700195 32.890625 2373.17700195 C22.87827883 2346.01486935 12.86752293 2318.85217965 2.890625 2291.67700195 C-3.5970972 2274.00580189 -10.09940156 2256.34001658 -16.609375 2238.67700195 C-23.18073922 2220.84691883 -29.74594933 2203.01460528 -36.296875 2185.17700195 C-36.66380463 2184.17789795 -37.03073425 2183.17879395 -37.40878296 2182.14941406 C-40.34076778 2174.16562835 -43.27202698 2166.18157627 -46.20324707 2158.19750977 C-48.77577579 2151.19054629 -51.34860654 2144.1836938 -53.921875 2137.17700195 C-54.28856293 2136.17854248 -54.65525085 2135.18008301 -55.03305054 2134.15136719 C-61.66019451 2116.10787915 -68.30436403 2098.07068377 -74.95181274 2080.03466797 C-81.38015774 2062.59267987 -87.79708086 2045.14654387 -94.20361328 2027.6965332 C-100.76846264 2009.81630264 -107.35142723 1991.94277979 -113.9385376 1974.07073975 C-121.02548489 1954.84183582 -128.09939274 1935.608178 -135.16210938 1916.37036133 C-135.5111734 1915.41962738 -135.86023743 1914.46889343 -136.21987915 1913.48934937 C-136.84936721 1911.77473052 -137.47875753 1910.06007579 -138.10800171 1908.34536743 C-138.54736557 1907.14851822 -138.54736557 1907.14851822 -138.99560547 1905.92749023 C-139.2888895 1905.09535227 -139.58217354 1904.2632143 -139.88434497 1903.40586003 C-140.7889766 1901.02148817 -141.74708521 1898.76910318 -142.8165701 1896.46251513 C-148.91456283 1882.67065459 -149.10898626 1869.59810085 -148.98837957 1854.69798047 C-148.96744074 1851.12775639 -148.98782209 1847.55770367 -149.00258765 1843.98748121 C-149.02293718 1837.72233454 -149.01753308 1831.45762952 -148.99491484 1825.19249669 C-148.96119292 1815.8133879 -148.96825928 1806.43460309 -148.983013 1797.05546089 C-149.00699134 1781.06679669 -148.9979269 1765.07830518 -148.97072983 1749.08965302 C-148.94330996 1732.89300094 -148.93121049 1716.69644439 -148.93771553 1700.49976921 C-148.93811734 1699.4757151 -148.93851914 1698.45166098 -148.93893312 1697.39657493 C-148.94105036 1692.17458789 -148.94341193 1686.95260098 -148.94585639 1681.73061409 C-148.96301134 1643.95443014 -148.94604144 1606.17832291 -148.91061592 1568.40215492 C-148.8755972 1530.98100513 -148.85422525 1493.55989004 -148.85139275 1456.13872337 C-148.85119992 1453.78817162 -148.85100707 1451.43761986 -148.85081418 1449.08706811 C-148.85006964 1439.64102749 -148.84944576 1430.19498686 -148.84896395 1420.74894622 C-148.84760105 1394.34315743 -148.84394562 1367.93736922 -148.83866024 1341.53158092 C-148.83842094 1340.32912394 -148.83818165 1339.12666696 -148.8379351 1337.88777189 C-148.82607876 1279.40319693 -148.7874498 1220.9186432 -148.74731445 1162.43408203 C-148.69154007 1081.14664447 -148.65611507 999.85923355 -148.64477539 918.57177734 C-148.64441784 916.04277782 -148.6440597 913.5137783 -148.64370098 910.98477878 C-148.64209383 899.63209552 -148.6405136 888.27941226 -148.63893946 876.926729 C-148.63859059 874.41157055 -148.63824118 871.89641211 -148.63789125 869.38125367 C-148.63701843 863.10687827 -148.63615244 856.83250286 -148.63530015 850.55812745 C-148.62453336 771.81680597 -148.59797801 693.07548918 -148.56764672 614.33417306 C-148.55818595 589.76594567 -148.54943989 565.19771844 -148.54268384 540.62949014 C-148.52902121 491.41721682 -148.51027951 442.20495726 -148.47297014 392.99269543 C-148.46983937 388.8322103 -148.46673281 384.67172516 -148.46364403 380.51124001 C-148.46288198 379.4902016 -148.46211994 378.46916319 -148.4613348 377.41718423 C-148.44944445 361.26826964 -148.44412398 345.11936001 -148.44151616 328.97044153 C-148.43879695 313.08039282 -148.42886117 297.19036191 -148.41130779 281.30032253 C-148.40122751 271.99237579 -148.39646863 262.68446427 -148.39975303 253.37651244 C-148.40138551 247.18237082 -148.39570579 240.98826272 -148.3842647 234.79413154 C-148.37799014 231.29089993 -148.3746216 227.7877425 -148.38030946 224.28450814 C-148.4454266 168.61604876 -138.24728678 114.22070943 -105.109375 68.17700195 C-104.70750977 67.61819336 -104.30564453 67.05938477 -103.89160156 66.48364258 C-97.96164807 58.33174842 -91.40899797 50.85348544 -84.44335938 43.57397461 C-83.30578827 42.38268949 -82.18259276 41.17770431 -81.0625 39.9699707 C-61.43160169 19.37430603 -29.08730909 0.26949542 0 0 Z M-16.109375 39.17700195 C-17.34554565 39.63091309 -17.34554565 39.63091309 -18.60668945 40.09399414 C-20.67935754 40.91780302 -22.67034198 41.81926382 -24.671875 42.80200195 C-25.37530029 43.14191162 -26.07872559 43.48182129 -26.8034668 43.83203125 C-64.67448126 62.77821359 -89.22178838 102.14256129 -102.54296875 140.9987793 C-105.17585014 149.04236835 -107.13747335 157.20666084 -108.859375 165.48950195 C-109.05813232 166.42358887 -109.25688965 167.35767578 -109.46166992 168.32006836 C-113.20627817 187.43634964 -113.40037307 206.85907727 -113.35547066 226.26325798 C-113.35695311 228.84192526 -113.35931363 231.42059215 -113.36246365 233.99925792 C-113.3678871 239.58645463 -113.36599978 245.17361029 -113.35914136 250.76080488 C-113.34891502 259.12470978 -113.3504127 267.48858584 -113.35407452 275.85249476 C-113.35998446 290.11184072 -113.35648693 304.37117024 -113.34778595 318.63051414 C-113.33901412 333.06978862 -113.33464259 347.50905461 -113.33559036 361.94833183 C-113.33564775 362.8620445 -113.33570513 363.77575716 -113.33576425 364.71715809 C-113.33607703 369.37659678 -113.33646092 374.03603547 -113.33686993 378.69547415 C-113.33968126 412.3774393 -113.332836 446.05939689 -113.32083511 479.74135971 C-113.3089822 513.0878287 -113.30128333 546.43429445 -113.29912949 579.78076553 C-113.29906066 580.81714039 -113.29899184 581.85351524 -113.29892093 582.9212954 C-113.29829451 592.38726008 -113.29771913 601.85322476 -113.29720498 611.31918945 C-113.29592634 634.84842395 -113.29400779 658.37765836 -113.29165459 681.90689278 C-113.29154795 682.97825277 -113.29144132 684.04961276 -113.29133145 685.15343821 C-113.28609092 737.24365078 -113.27347684 789.33386121 -113.26025391 841.42407227 C-113.2556705 859.4960327 -113.25111974 877.56799314 -113.2467041 895.63995361 C-113.2464302 896.76080881 -113.2461563 897.88166401 -113.24587411 899.03648452 C-113.23318123 951.16177777 -113.22573325 1003.28707139 -113.21963451 1055.41236579 C-113.21923838 1058.79721326 -113.21884 1062.18206073 -113.21844115 1065.5669082 C-113.21580154 1087.99884624 -113.21325225 1110.43078429 -113.21076343 1132.86272235 C-113.20581069 1177.4950654 -113.20032734 1222.12740837 -113.19447934 1266.75975131 C-113.19420086 1268.88516372 -113.19392275 1271.01057613 -113.19364501 1273.13598854 C-113.18114206 1368.79272714 -113.16246717 1464.44946417 -113.14111328 1560.10620117 C-113.14091341 1561.00171773 -113.14071354 1561.89723429 -113.14050761 1562.81988771 C-113.1305071 1607.60559255 -113.12010506 1652.39129728 -113.109375 1697.17700195 C-80.439375 1697.17700195 -47.769375 1697.17700195 -14.109375 1697.17700195 C-14.109375 1691.89700195 -14.109375 1686.61700195 -14.109375 1681.17700195 C20.210625 1681.17700195 54.530625 1681.17700195 89.890625 1681.17700195 C89.890625 1686.45700195 89.890625 1691.73700195 89.890625 1697.17700195 C120.250625 1697.17700195 150.610625 1697.17700195 181.890625 1697.17700195 C181.90157183 1651.61442065 181.9121657 1606.05183929 181.92236328 1560.48925781 C181.92266267 1559.15184058 181.92266267 1559.15184058 181.92296812 1557.78740482 C181.94434557 1462.23722245 181.96279101 1366.68704005 181.97531128 1271.13685608 C181.97559018 1269.01406533 181.97586908 1266.89127459 181.97614799 1264.76848384 C181.98199355 1220.20906559 181.98742696 1175.6496473 181.99238436 1131.09022894 C181.99487512 1108.70605389 181.99744506 1086.32187885 182.00008988 1063.93770382 C182.00048838 1060.56116738 182.00088462 1057.18463094 182.00128076 1053.8080945 C182.00739963 1001.82351901 182.01521518 949.83894445 182.0279541 897.85437012 C182.0282279 896.73693268 182.0285017 895.61949524 182.02878379 894.46819606 C182.03320845 876.45217081 182.0377757 858.43614559 182.04236188 840.42012037 C182.05557176 788.51881476 182.06772462 736.61750986 182.07290459 684.71620274 C182.07301166 683.6485451 182.07311873 682.58088747 182.07322904 681.48087657 C182.07556075 658.04132181 182.07735037 634.60176704 182.07862697 611.1622122 C182.0791502 601.73044638 182.07975144 592.29868056 182.08037949 582.86691475 C182.08044634 581.83465907 182.08051319 580.80240338 182.08058207 579.73886723 C182.08277373 546.4978451 182.09131166 513.25682834 182.10318942 480.01580838 C182.11512854 446.52153568 182.12082084 413.02726818 182.11787298 379.53299331 C182.11746684 374.90060679 182.11713206 370.26822027 182.11684036 365.63583374 C182.1167806 364.72778286 182.11672084 363.81973199 182.11665927 362.88416441 C182.11589904 348.52664522 182.12185752 334.16913705 182.13064472 319.81162085 C182.13915419 305.68092458 182.14049035 291.55024254 182.13428863 277.4195449 C182.13087039 269.1436463 182.13286629 260.86779295 182.143059 252.59189966 C182.15002678 246.43269856 182.14644411 240.27354447 182.13890495 234.11434498 C182.13748439 231.64917295 182.13936863 229.18399603 182.14509549 226.71883024 C182.18682718 207.52792559 181.93439501 187.99888427 177.765625 169.17700195 C177.44911987 167.71218384 177.44911987 167.71218384 177.1262207 166.21777344 C169.90873028 134.49083545 155.09580702 105.40683517 133.01171875 81.4855957 C131.06064155 79.36204759 129.19094218 77.19024515 127.328125 74.98950195 C123.81707294 70.98258377 120.01780674 67.5393804 115.890625 64.17700195 C114.94316406 63.40356445 113.99570313 62.63012695 113.01953125 61.83325195 C87.89874368 41.72563842 62.43158723 34.43614703 30.4309082 34.65551758 C26.69872531 34.67702731 22.96845414 34.6555805 19.23632812 34.63012695 C6.89550553 34.61482067 -4.46980162 34.77183188 -16.109375 39.17700195 Z M-113.109375 1715.17700195 C-113.109375 1724.41700195 -113.109375 1733.65700195 -113.109375 1743.17700195 C-80.439375 1743.17700195 -47.769375 1743.17700195 -14.109375 1743.17700195 C-14.109375 1733.93700195 -14.109375 1724.69700195 -14.109375 1715.17700195 C-46.779375 1715.17700195 -79.449375 1715.17700195 -113.109375 1715.17700195 Z M89.890625 1715.17700195 C89.890625 1724.41700195 89.890625 1733.65700195 89.890625 1743.17700195 C120.250625 1743.17700195 150.610625 1743.17700195 181.890625 1743.17700195 C181.890625 1733.93700195 181.890625 1724.69700195 181.890625 1715.17700195 C151.530625 1715.17700195 121.170625 1715.17700195 89.890625 1715.17700195 Z M-113.109375 1761.17700195 C-113.66603917 1779.99094005 -113.66603917 1779.99094005 -114.03710938 1798.8059082 C-114.14881923 1806.53171068 -114.27774795 1814.25307525 -114.54272461 1821.9753418 C-115.75442663 1858.27841539 -111.05585008 1887.0355333 -96.56167603 1920.39562988 C-92.8489333 1929.00964595 -89.70824006 1937.83896521 -86.52707291 1946.65960503 C-84.82760149 1951.34936715 -83.08762047 1956.02412554 -81.3515625 1960.70043945 C-76.93985011 1972.62333993 -72.55352297 1984.55552531 -68.171875 1996.48950195 C-67.79776489 1997.50837494 -67.42365479 1998.52724792 -67.03820801 1999.57699585 C-64.76896659 2005.75748732 -62.50031591 2011.9381955 -60.23181152 2018.11895752 C-56.92117845 2027.13867743 -53.60932102 2036.1579477 -50.296875 2045.17700195 C-49.93054962 2046.17446442 -49.56422424 2047.17192688 -49.1867981 2048.19961548 C-43.00540317 2065.029497 -36.80950378 2081.85401412 -30.609375 2098.67700195 C-24.0380719 2116.50710775 -17.47285755 2134.33941936 -10.921875 2152.17700195 C-10.55627472 2153.17245026 -10.19067444 2154.16789856 -9.81399536 2155.19351196 C-6.49390004 2164.23373506 -3.17469661 2173.27428543 0.14355469 2182.31518555 C0.90038574 2184.37719906 1.65722169 2186.43921077 2.4140625 2188.5012207 C2.78950699 2189.52413712 3.16495148 2190.54705353 3.55177307 2191.60096741 C6.53218958 2199.7202234 9.51681866 2207.83792633 12.50267029 2215.95518494 C14.84783363 2222.33308055 17.18509903 2228.71382068 19.51792908 2235.09623718 C21.09393181 2239.40510183 22.67441972 2243.71231259 24.25582886 2248.01919556 C25.0075883 2250.06971874 25.75739055 2252.12096061 26.50515747 2254.17294312 C27.53483225 2256.99779771 28.57127765 2259.82007753 29.609375 2262.6418457 C29.91370956 2263.48201233 30.21804413 2264.32217896 30.53160095 2265.18780518 C32.09369618 2269.55311213 32.09369618 2269.55311213 34.890625 2273.17700195 C53.62223339 2222.53421508 72.28139635 2171.86487751 90.890625 2121.17700195 C93.82774593 2113.17686272 96.76512315 2105.17681772 99.703125 2097.17700195 C100.25315689 2095.67931274 100.25315689 2095.67931274 100.81430054 2094.15136719 C107.44144451 2076.10787915 114.08561403 2058.07068377 120.73306274 2040.03466797 C126.79541902 2023.58571476 132.84865203 2007.13345274 138.890625 1990.67700195 C145.03982487 1973.93007624 151.1960523 1957.18574875 157.36157227 1940.44482422 C158.22990395 1938.08697579 159.09807838 1935.72906943 159.96606445 1933.37109375 C160.78553465 1931.14505325 161.6066611 1928.91962175 162.42945862 1926.69480896 C163.2592074 1924.43368052 164.0769511 1922.16811505 164.88340759 1919.89857483 C166.87113621 1914.35907477 168.94624967 1908.94472784 171.48299599 1903.63621807 C184.48696684 1876.29714973 183.46143523 1849.16402643 182.78326416 1819.39123535 C182.62406636 1811.64037581 182.56671965 1803.88801875 182.49137115 1796.1359787 C182.36713832 1784.48017034 182.11743112 1772.83328553 181.890625 1761.17700195 C151.530625 1761.17700195 121.170625 1761.17700195 89.890625 1761.17700195 C89.890625 1769.09700195 89.890625 1777.01700195 89.890625 1785.17700195 C55.570625 1785.17700195 21.250625 1785.17700195 -14.109375 1785.17700195 C-14.109375 1777.25700195 -14.109375 1769.33700195 -14.109375 1761.17700195 C-46.779375 1761.17700195 -79.449375 1761.17700195 -113.109375 1761.17700195 Z " fill="#F4F4F4" transform="translate(2211.109375,603.822998046875)"/>
<path d="M0 0 C2.11123131 -0.10851382 4.22190729 -0.19319693 6.33456314 -0.2684474 C8.83395015 -0.36113145 11.33237067 -0.49449429 13.82657135 -0.68020582 C18.97757382 -0.81950262 21.95647277 -0.6479042 26.05054939 2.6580739 C28.62138043 5.44830476 30.9211021 8.2984914 33.18294609 11.34247637 C34.61528847 13.11748404 36.05203711 14.88895613 37.49544609 16.65497637 C38.2237664 17.55860918 38.95208671 18.46224199 39.70247734 19.39325762 C43.11698752 23.45302957 46.7496393 27.28939494 50.38533866 31.1503377 C54.4062385 35.44356238 58.13284376 39.90484846 61.80794609 44.49872637 C64.64759064 47.89882709 67.64682708 51.11834081 70.68294609 54.34247637 C75.28872055 59.23347081 79.60908279 64.25014725 83.80794609 69.49872637 C86.64759064 72.89882709 89.64682708 76.11834081 92.68294609 79.34247637 C96.505025 83.40124365 100.19732056 87.48544446 103.68294609 91.84247637 C108.24336535 97.53879342 113.20029272 102.81566702 118.18685234 108.13544512 C122.56411323 112.80640957 126.73437498 117.63995177 130.88216484 122.51435137 C131.89876365 123.70733951 132.91570196 124.90003842 133.93294609 126.09247637 C134.70517509 126.99800249 134.70517509 126.99800249 135.49300468 127.92182207 C138.87396598 131.8673292 142.33396651 135.72367002 145.87044609 139.52997637 C149.23878055 143.15530845 152.46216629 146.8548003 155.55794609 150.71747637 C159.60960825 155.75664043 163.95649225 160.44713408 168.3855828 165.15058184 C172.40638252 169.44373937 176.13291689 173.90493988 179.80794609 178.49872637 C182.64759064 181.89882709 185.64682708 185.11834081 188.68294609 188.34247637 C192.505025 192.40124365 196.19732056 196.48544446 199.68294609 200.84247637 C204.24336535 206.53879342 209.20029272 211.81566702 214.18685234 217.13544512 C218.56411323 221.80640957 222.73437498 226.63995177 226.88216484 231.51435137 C227.89876365 232.70733951 228.91570196 233.90003842 229.93294609 235.09247637 C230.44776542 235.69616045 230.96258476 236.29984453 231.49300468 236.92182207 C234.87396666 240.86732999 238.33396245 244.72367074 241.87044609 248.52997637 C246.88976306 253.95054688 251.57797414 259.56636341 256.18294609 265.34247637 C260.15136378 263.77916031 262.59860002 261.02122406 265.37044609 257.90497637 C265.85529472 257.36856524 266.34014335 256.8321541 266.83968437 256.27948809 C269.84955791 252.92190352 272.73234447 249.48250388 275.55794609 245.96747637 C279.60960825 240.92831231 283.95649225 236.23781866 288.3855828 231.5343709 C291.6284306 228.07186159 294.71724087 224.54960788 297.68294609 220.84247637 C301.68642064 215.83813317 305.99631317 211.19548335 310.38607109 206.53388262 C313.62872679 203.07151426 316.71738691 199.54942534 319.68294609 195.84247637 C324.24336535 190.14615932 329.20029272 184.86928571 334.18685234 179.54950762 C338.56411323 174.87854317 342.73437498 170.04500096 346.88216484 165.17060137 C347.89876365 163.97761322 348.91570196 162.78491431 349.93294609 161.59247637 C350.44776542 160.98879229 350.96258476 160.3851082 351.49300468 159.76313066 C355.3150686 155.30286653 359.25515875 150.96980523 363.2527703 146.6671834 C366.15042833 143.52744519 368.88641181 140.30081148 371.55794609 136.96747637 C375.60960825 131.92831231 379.95649225 127.23781866 384.3855828 122.5343709 C387.6284306 119.07186159 390.71724087 115.54960788 393.68294609 111.84247637 C397.68642064 106.83813317 401.99631317 102.19548335 406.38607109 97.53388262 C409.62872679 94.07151426 412.71738691 90.54942534 415.68294609 86.84247637 C419.68642064 81.83813317 423.99631317 77.19548335 428.38607109 72.53388262 C431.62872679 69.07151426 434.71738691 65.54942534 437.68294609 61.84247637 C442.24336535 56.14615932 447.20029272 50.86928571 452.18685234 45.54950762 C456.56411323 40.87854317 460.73437498 36.04500096 464.88216484 31.17060137 C465.898767 29.97761608 466.9157046 28.78491656 467.93294609 27.59247637 C468.69864921 26.69456377 468.69864921 26.69456377 469.47982109 25.77851152 C473.83647095 20.69438848 478.33874764 15.76136751 482.90560234 10.86591387 C485.17336453 8.52668967 485.17336453 8.52668967 486.42491996 6.21013689 C488.18294609 4.34247637 488.18294609 4.34247637 491.03276908 3.88143206 C492.20622886 3.89959475 493.37968864 3.91775743 494.5887078 3.93647051 C495.24574825 3.94090858 495.90278869 3.94534666 496.57973945 3.94991922 C498.79968234 3.96948958 501.01812558 4.01762394 503.23763359 4.06513262 C504.83940796 4.0845512 506.44120726 4.10199803 508.04302299 4.11763811 C511.54622261 4.15478474 515.04902172 4.20346469 518.55196464 4.25977373 C524.33407938 4.34971296 530.11611457 4.39630154 535.8987664 4.43573809 C547.60734291 4.51809699 559.31549362 4.63054553 571.0237664 4.74774981 C574.285637 4.77975746 577.54751854 4.81009263 580.80941093 4.83979082 C612.60582826 5.12944813 644.39290094 5.64305674 676.18294609 6.34247637 C675.25206719 7.60820949 674.31770145 8.87137859 673.3819207 10.13349199 C672.86198036 10.83719927 672.34204002 11.54090654 671.80634391 12.26593828 C669.36617314 15.38723576 666.59602995 18.10032482 663.74544609 20.84247637 C659.55010953 24.95250815 655.52674321 29.10519798 651.72200859 33.58466387 C649.57760515 36.03385561 647.25433388 38.28129193 644.93294609 40.56122637 C643.10052121 42.42637311 641.38941474 44.36175382 639.68294609 46.34247637 C636.90055277 49.57204004 633.9727518 52.5757029 630.93294609 55.56122637 C629.10052121 57.42637311 627.38941474 59.36175382 625.68294609 61.34247637 C622.90055277 64.57204004 619.9727518 67.5757029 616.93294609 70.56122637 C615.10052121 72.42637311 613.38941474 74.36175382 611.68294609 76.34247637 C608.90055277 79.57204004 605.9727518 82.5757029 602.93294609 85.56122637 C601.10052121 87.42637311 599.38941474 89.36175382 597.68294609 91.34247637 C594.90055277 94.57204004 591.9727518 97.5757029 588.93294609 100.56122637 C587.10052121 102.42637311 585.38941474 104.36175382 583.68294609 106.34247637 C580.90055277 109.57204004 577.9727518 112.5757029 574.93294609 115.56122637 C573.10052121 117.42637311 571.38941474 119.36175382 569.68294609 121.34247637 C566.90055277 124.57204004 563.9727518 127.5757029 560.93294609 130.56122637 C559.10052121 132.42637311 557.38941474 134.36175382 555.68294609 136.34247637 C552.90055277 139.57204004 549.9727518 142.5757029 546.93294609 145.56122637 C545.10052121 147.42637311 543.38941474 149.36175382 541.68294609 151.34247637 C538.90055277 154.57204004 535.9727518 157.5757029 532.93294609 160.56122637 C531.10052121 162.42637311 529.38941474 164.36175382 527.68294609 166.34247637 C524.90055277 169.57204004 521.9727518 172.5757029 518.93294609 175.56122637 C517.10052121 177.42637311 515.38941474 179.36175382 513.68294609 181.34247637 C510.90055277 184.57204004 507.9727518 187.5757029 504.93294609 190.56122637 C503.10052121 192.42637311 501.38941474 194.36175382 499.68294609 196.34247637 C496.90055277 199.57204004 493.9727518 202.5757029 490.93294609 205.56122637 C489.10052121 207.42637311 487.38941474 209.36175382 485.68294609 211.34247637 C482.90055277 214.57204004 479.9727518 217.5757029 476.93294609 220.56122637 C475.10052121 222.42637311 473.38941474 224.36175382 471.68294609 226.34247637 C468.92950925 229.53842984 466.0361743 232.514777 463.02645195 235.46772051 C461.24957968 237.27471324 459.58857736 239.1359257 457.93685234 241.05732012 C454.26891106 245.27540416 450.46633358 249.34939984 446.62044609 253.40497637 C445.2048213 254.90342851 443.78946163 256.40213115 442.37435234 257.90107012 C441.67068534 258.64598711 440.96701835 259.3909041 440.24202812 260.15839434 C437.16937644 263.41757644 434.11223318 266.69109085 431.05794609 269.96747637 C430.48874443 270.57792803 429.91954277 271.18837969 429.33309257 271.81732988 C428.188865 273.04469134 427.04474015 274.27214857 425.90071952 275.49970293 C422.99635372 278.61541543 420.08951309 281.72881747 417.18294609 284.84247637 C416.01626782 286.09246555 414.84960115 287.34246554 413.68294609 288.59247637 C392.68294609 311.09247637 371.68294609 333.59247637 350.68294609 356.09247637 C350.10439872 356.7123543 349.52585136 357.33223223 348.92977226 357.97089434 C347.77370826 359.2095228 346.61762136 360.44812989 345.46151054 361.68671465 C342.38242616 364.98551608 339.30384511 368.28478555 336.22591484 371.58466387 C335.58073905 372.2762459 334.93556327 372.96782793 334.27083671 373.68036699 C333.02590019 375.01486729 331.7811033 376.34949787 330.53646171 377.68427324 C326.29540828 382.23001417 326.29540828 382.23001417 325.18294609 383.34247637 C325.0807609 384.99477591 325.04895541 386.65145938 325.04428089 388.30690908 C325.03606922 389.9296746 325.03606922 389.9296746 325.02769166 391.58522326 C325.02671356 392.78850439 325.02573545 393.99178552 325.0247277 395.23152971 C325.01732074 397.1316632 325.01732074 397.1316632 325.00976413 399.07018322 C324.99612978 402.60240847 324.98874943 406.13462406 324.98233747 409.66686881 C324.97435669 413.46989767 324.96065098 417.27290626 324.94762504 421.07592058 C324.92582923 427.67025479 324.90769615 434.26459102 324.89202011 440.85894251 C324.86934967 450.39337817 324.84120299 459.92779141 324.81170083 469.46220808 C324.76399017 484.92953047 324.72073544 500.396862 324.68026054 515.86420488 C324.64092326 530.89318349 324.59948988 545.92215391 324.55526054 560.95111895 C324.55251103 561.88627689 324.54976153 562.82143483 324.5469287 563.78493088 C324.52541074 571.09800462 324.50377084 578.41107799 324.48209238 585.72415125 C324.37578449 621.59690982 324.28011749 657.46968964 324.18294609 693.34247637 C271.38294609 693.34247637 218.58294609 693.34247637 164.18294609 693.34247637 C164.18294609 628.62225772 164.18294609 628.62225772 164.55333793 597.54326105 C164.62416569 591.52777811 164.68979901 585.51224348 164.75496757 579.49669695 C164.91734648 564.57585356 165.08646383 549.6550876 165.25582206 534.73432207 C165.31626579 529.40688219 165.37635531 524.0794384 165.436221 518.75199199 C165.46004431 516.63704409 165.4839888 514.52209755 165.50805557 512.40715241 C165.63708502 501.05652421 165.75652834 489.7059625 165.84725273 478.35495806 C165.87150652 475.38270404 165.89592121 472.41045145 165.92051589 469.43820024 C165.93654395 467.4992139 165.95234519 465.56022569 165.96791351 463.62123561 C166.06147583 452.30963482 166.24029121 441.00677197 166.57325065 429.6996398 C166.7217427 424.63880574 166.82955089 419.57740833 166.92408168 414.51530117 C166.98728171 411.28910855 167.08118339 408.06862995 167.22106254 404.84474421 C168.29626405 391.23718426 168.29626405 391.23718426 163.35653007 379.05722857 C160.27356552 375.70149563 156.82941944 373.05981375 153.18294609 370.34247637 C151.90940318 368.98700971 150.66490519 367.60120138 149.49544609 366.15497637 C146.0831797 362.1330743 142.3392581 358.48485691 138.58919609 354.77997637 C135.93334855 352.08963731 133.48159176 349.27674112 131.02669609 346.40497637 C128.83498296 343.95322948 126.52227504 341.65362064 124.18294609 339.34247637 C120.61894306 335.82141314 117.27990441 332.21061629 114.02669609 328.40497637 C111.83498296 325.95322948 109.52227504 323.65362064 107.18294609 321.34247637 C103.61894306 317.82141314 100.27990441 314.21061629 97.02669609 310.40497637 C94.83498296 307.95322948 92.52227504 305.65362064 90.18294609 303.34247637 C86.61894306 299.82141314 83.27990441 296.21061629 80.02669609 292.40497637 C77.83498296 289.95322948 75.52227504 287.65362064 73.18294609 285.34247637 C69.61894306 281.82141314 66.27990441 278.21061629 63.02669609 274.40497637 C60.83498296 271.95322948 58.52227504 269.65362064 56.18294609 267.34247637 C52.61894306 263.82141314 49.27990441 260.21061629 46.02669609 256.40497637 C43.83498296 253.95322948 41.52227504 251.65362064 39.18294609 249.34247637 C35.61894306 245.82141314 32.27990441 242.21061629 29.02669609 238.40497637 C26.83498296 235.95322948 24.52227504 233.65362064 22.18294609 231.34247637 C18.61894306 227.82141314 15.27990441 224.21061629 12.02669609 220.40497637 C9.83498296 217.95322948 7.52227504 215.65362064 5.18294609 213.34247637 C1.61894306 209.82141314 -1.72009559 206.21061629 -4.97330391 202.40497637 C-7.16501704 199.95322948 -9.47772496 197.65362064 -11.81705391 195.34247637 C-15.38105694 191.82141314 -18.72009559 188.21061629 -21.97330391 184.40497637 C-24.16501704 181.95322948 -26.47772496 179.65362064 -28.81705391 177.34247637 C-32.38105694 173.82141314 -35.72009559 170.21061629 -38.97330391 166.40497637 C-41.16501704 163.95322948 -43.47772496 161.65362064 -45.81705391 159.34247637 C-49.38105694 155.82141314 -52.72009559 152.21061629 -55.97330391 148.40497637 C-58.16501704 145.95322948 -60.47772496 143.65362064 -62.81705391 141.34247637 C-66.38105694 137.82141314 -69.72009559 134.21061629 -72.97330391 130.40497637 C-75.16501704 127.95322948 -77.47772496 125.65362064 -79.81705391 123.34247637 C-83.38105694 119.82141314 -86.72009559 116.21061629 -89.97330391 112.40497637 C-92.16501704 109.95322948 -94.47772496 107.65362064 -96.81705391 105.34247637 C-100.38105694 101.82141314 -103.72009559 98.21061629 -106.97330391 94.40497637 C-109.16501704 91.95322948 -111.47772496 89.65362064 -113.81705391 87.34247637 C-117.38105694 83.82141314 -120.72009559 80.21061629 -123.97330391 76.40497637 C-126.16501704 73.95322948 -128.47772496 71.65362064 -130.81705391 69.34247637 C-134.38105694 65.82141314 -137.72009559 62.21061629 -140.97330391 58.40497637 C-143.16501704 55.95322948 -145.47772496 53.65362064 -147.81705391 51.34247637 C-151.38105694 47.82141314 -154.72009559 44.21061629 -157.97330391 40.40497637 C-160.16501704 37.95322948 -162.47772496 35.65362064 -164.81705391 33.34247637 C-168.37661579 29.82580078 -171.71478469 26.22323524 -174.95767891 22.41669512 C-177.99903038 19.02392699 -181.29886825 15.89334116 -184.58267891 12.73700762 C-186.76578533 10.3974198 -188.22118291 8.0997359 -189.81705391 5.34247637 C-166.47507966 4.68545279 -143.13297376 4.03329627 -119.79070771 3.38671923 C-108.94916511 3.08630027 -98.10766878 2.78436998 -87.26627266 2.47870684 C-77.8018476 2.21187015 -68.33734381 1.94804719 -58.87273955 1.68764114 C-53.87503364 1.55003591 -48.8773755 1.41105942 -43.8798095 1.26845598 C-41.95893945 1.21384631 -40.03806774 1.15929543 -38.11719429 1.10480547 C-37.18342961 1.07826214 -36.24966492 1.05171882 -35.28760433 1.02437115 C-28.21163843 0.8265783 -21.13522801 0.67147067 -14.05795217 0.52915764 C-9.36626534 0.42682293 -4.68597283 0.25239405 0 0 Z " fill="#F4F4F4" transform="translate(1606.8170539140701,3687.6575236320496)"/>
<path d="M0 0 C696.63 0 1393.26 0 2111 0 C2111 11.55 2111 23.1 2111 35 C1414.37 35 717.74 35 0 35 C0 23.45 0 11.9 0 0 Z " fill="#F4F4F4" transform="translate(1185,3271)"/>
<path d="M0 0 C11.55 0 23.1 0 35 0 C35.05118673 82.3218188 35.0991192 164.64363895 35.12702942 246.96546936 C35.12744359 248.1839551 35.12785776 249.40244084 35.12828448 250.65785039 C35.13726331 277.13914522 35.14557384 303.62044022 35.15319599 330.10173547 C35.15693798 343.08825012 35.16082765 356.07476472 35.16479492 369.0612793 C35.1651872 370.35359017 35.16557948 371.64590103 35.16598364 372.97737284 C35.17876654 414.86112005 35.20129962 456.74485511 35.22889166 498.62859497 C35.25719573 541.6713652 35.27565779 584.71412872 35.28174497 627.75690811 C35.28260943 633.83709507 35.28358634 639.91728201 35.28463173 645.99746895 C35.284834 647.19413107 35.28503627 648.3907932 35.28524467 649.62371781 C35.28878913 668.88279332 35.30270146 688.14184803 35.3204961 707.40091506 C35.33816644 726.76511958 35.34490177 746.12930349 35.34050413 765.49351578 C35.33822329 776.99659522 35.3442977 788.49959924 35.36239263 800.00266505 C35.37366131 807.69198859 35.37397758 815.38126286 35.36549544 823.07058982 C35.36097653 827.44848166 35.36111775 831.82623109 35.37464955 836.20410752 C35.38689539 840.1964569 35.38500879 844.18855432 35.37241993 848.18090037 C35.37029856 849.60702546 35.37307501 851.03316975 35.38170573 852.4592703 C35.53681983 879.85346358 26.95643105 901.27765254 8 921 C6.57632425 922.577034 5.15935882 924.16015831 3.75 925.75 C-0.86982889 930.89970174 -5.60915806 935.93396184 -10.34838867 940.97338867 C-15.00482194 945.92794547 -19.61010844 950.92471814 -24.1953125 955.9453125 C-27.41839261 959.46540791 -30.67784494 962.95130179 -33.9375 966.4375 C-40.32085647 973.2649764 -46.6677058 980.12517993 -53 987 C-59.9024934 994.49387168 -66.827722 1001.96535112 -73.78417969 1009.40917969 C-79.54951387 1015.58155346 -85.27785743 1021.78760693 -91 1028 C-97.92636539 1035.51978893 -104.8767116 1043.01586305 -111.85888672 1050.48388672 C-115.42689036 1054.30386523 -118.97329528 1058.14185754 -122.5 1062 C-127.20987715 1067.15250878 -131.96641765 1072.25967748 -136.73388672 1077.35888672 C-142.51713995 1083.54698349 -148.26178773 1089.77016044 -154 1096 C-160.89651342 1103.48737936 -167.81426893 1110.95379039 -174.76660156 1118.3894043 C-179.23201071 1123.16818638 -183.67318305 1127.96876343 -188.09375 1132.7890625 C-189.38963693 1134.19843105 -190.69450677 1135.59952506 -192 1137 C-192.68835937 1137.80050781 -193.37671875 1138.60101562 -194.0859375 1139.42578125 C-196 1141 -196 1141 -197.921875 1141.0703125 C-200.94628616 1139.51262705 -202.90672349 1137.33209279 -205.25 1134.875 C-206.22194273 1133.87044175 -207.1959128 1132.86784115 -208.171875 1131.8671875 C-208.64947266 1131.37702148 -209.12707031 1130.88685547 -209.61914062 1130.38183594 C-212.07283489 1127.92640639 -214.69722632 1125.68031668 -217.34375 1123.4375 C-218.16359375 1122.7259375 -218.16359375 1122.7259375 -219 1122 C-219.88171875 1121.2884375 -219.88171875 1121.2884375 -220.78125 1120.5625 C-222 1119 -222 1119 -221.9765625 1117.109375 C-220.62489399 1114.18977102 -218.70547177 1112.46077986 -216.375 1110.25 C-212.64515638 1106.69230301 -209.2238903 1103.00918421 -205.85205078 1099.11035156 C-202.74451771 1095.56941881 -199.49287345 1092.16658471 -196.25 1088.75 C-190.7065622 1082.88579381 -185.2122257 1076.98487201 -179.7734375 1071.0234375 C-176.54256378 1067.49048063 -173.27062256 1063.99612198 -170 1060.5 C-165.8101685 1056.02066868 -161.63791084 1051.52736128 -157.5 1047 C-152.79012285 1041.84749122 -148.03358235 1036.74032252 -143.26611328 1031.64111328 C-137.48286005 1025.45301651 -131.73821227 1019.22983956 -126 1013 C-119.0975066 1005.50612832 -112.172278 998.03464888 -105.21582031 990.59082031 C-99.45048613 984.41844654 -93.72214257 978.21239307 -88 972 C-81.07363461 964.48021107 -74.1232884 956.98413695 -67.14111328 949.51611328 C-63.57310964 945.69613477 -60.02670472 941.85814246 -56.5 938 C-51.79012285 932.84749122 -47.03358235 927.74032252 -42.26611328 922.64111328 C-37.96312375 918.03690272 -33.67358749 913.42071368 -29.40966797 908.78027344 C-26.90249613 906.05264483 -24.38144942 903.34058004 -21.83203125 900.65234375 C-9.84566962 887.96742451 -0.88785096 875.92839411 -0.86938947 857.71481574 C-0.86570876 856.46285951 -0.86202805 855.21090329 -0.85823581 853.921009 C-0.85918137 852.53677422 -0.86021771 851.15253949 -0.8613348 849.76830482 C-0.85888661 848.28782131 -0.85600251 846.80733846 -0.85272202 845.32685655 C-0.84494538 841.24421006 -0.84337987 837.16158087 -0.8427946 833.07892788 C-0.84106708 828.64283845 -0.83358257 824.2067582 -0.82681805 819.77067411 C-0.81575301 811.99125411 -0.80838614 804.21183737 -0.80341911 796.43241119 C-0.79601665 784.86463688 -0.78293432 773.29687391 -0.76867336 761.72910627 C-0.74484729 742.27152143 -0.72564964 722.81393458 -0.70907402 703.35634232 C-0.69264289 684.08605295 -0.6741643 664.81576734 -0.65294075 645.54548264 C-0.65162314 644.34809146 -0.65030554 643.15070028 -0.648948 641.91702451 C-0.64224608 635.83627943 -0.63550747 629.75553438 -0.62875474 623.67478935 C-0.5809696 580.58544264 -0.53779093 537.49609242 -0.49731445 494.40673828 C-0.45797735 452.54150131 -0.41655792 410.67626724 -0.37231445 368.81103516 C-0.37095192 367.52096001 -0.36958939 366.23088485 -0.36818558 364.90171652 C-0.35450041 351.94645666 -0.34077285 338.99119685 -0.32701423 326.03593707 C-0.29898638 299.64369911 -0.27124147 273.25146085 -0.2436676 246.85922241 C-0.2423994 245.64570372 -0.2411312 244.43218503 -0.23982458 243.18189305 C-0.15514385 162.12126675 -0.07713537 81.06063378 0 0 Z " fill="#F4F4F4" transform="translate(2857,940)"/>
<path d="M0 0 C11.55 0 23.1 0 35 0 C35.00146656 4.4563026 35.00293312 8.91260519 35.00444412 13.50394726 C35.03056105 91.47625494 35.06176363 169.44855931 35.11663818 247.42085266 C35.11749569 248.64130037 35.1183532 249.86174808 35.1192367 251.11917905 C35.13790191 277.64217973 35.15745437 304.1651797 35.17792095 330.68817906 C35.18795222 343.6948699 35.1977874 356.70156088 35.20751953 369.70825195 C35.20849134 371.0025807 35.20946314 372.29690945 35.2104644 373.63046028 C35.24187699 415.59066082 35.26033919 457.55085493 35.27209247 499.5110652 C35.28423786 542.62715979 35.30943465 585.74322749 35.35107614 628.85930417 C35.35695031 634.9478013 35.36267514 641.03629856 35.36830902 647.12479591 C35.36942248 648.32311088 35.37053594 649.52142585 35.37168314 650.75605339 C35.38922949 670.05310703 35.39299928 689.35014 35.39162921 708.64720054 C35.39054571 728.04272175 35.40394746 747.43818998 35.43216428 766.83369108 C35.44849166 778.35983729 35.45368351 789.88586368 35.44297175 801.41201714 C35.43691047 809.11163292 35.44532575 816.81114511 35.4654923 824.51073663 C35.47656893 828.89780055 35.48136998 833.28462079 35.46851245 837.67168542 C35.45692511 841.6677343 35.4639026 845.66331641 35.4853007 849.65932087 C35.48978396 851.09123335 35.48767458 852.52318675 35.47792076 853.95507303 C35.34653871 874.79994143 43.50188852 886.673565 57.3203125 901.22753906 C60.25277605 904.32197007 63.15517659 907.44447217 66.0625 910.5625 C66.65490479 911.19631592 67.24730957 911.83013184 67.85766602 912.4831543 C72.32265764 917.26201852 76.74395011 922.07867483 81.15625 926.90625 C84.4136476 930.45977465 87.70704512 933.97945429 91 937.5 C95.18979278 941.97936809 99.36208866 946.47263818 103.5 951 C107.61830274 955.50533853 111.76882302 959.97874927 115.9375 964.4375 C122.81108517 971.78937759 129.64035765 979.18116473 136.45898438 986.58398438 C142.28563341 992.90850462 148.12846414 999.21710312 154 1005.5 C160.85182202 1012.8318621 167.66033123 1020.20284957 174.45898438 1027.58398438 C180.30560805 1033.93018604 186.16943562 1040.25937188 192.0625 1046.5625 C197.12896384 1051.9815093 202.15491 1057.43451975 207.16015625 1062.91015625 C210.39646228 1066.44056748 213.66668331 1069.93908639 216.9375 1073.4375 C222.82350842 1079.73308118 228.6798377 1086.05505952 234.51904297 1092.39404297 C236.04335116 1094.04701021 237.5701696 1095.69762602 239.09765625 1097.34765625 C245.11730996 1103.85270486 251.09311377 1110.39204393 257 1117 C255.43692759 1120.99141704 252.64043373 1123.41756688 249.5 1126.1875 C248.41650435 1127.15476612 247.33317374 1128.12221715 246.25 1129.08984375 C245.70601562 1129.57308105 245.16203125 1130.05631836 244.6015625 1130.55419922 C243.08281403 1131.92524014 241.60256342 1133.33857716 240.125 1134.75390625 C239.25875 1135.57761719 238.3925 1136.40132812 237.5 1137.25 C236.7265625 1137.99765625 235.953125 1138.7453125 235.15625 1139.515625 C233 1141 233 1141 231.05688477 1140.77758789 C228.6843261 1139.88066215 227.62972792 1138.91447949 225.93359375 1137.04296875 C225.3715625 1136.43130859 224.80953125 1135.81964844 224.23046875 1135.18945312 C223.63878906 1134.52880859 223.04710937 1133.86816406 222.4375 1133.1875 C221.81617188 1132.50751953 221.19484375 1131.82753906 220.5546875 1131.12695312 C218.69609652 1129.09089914 216.84787771 1127.04577353 215 1125 C213.17045493 1122.99649623 211.33496152 1120.99855393 209.5 1119 C208.6234375 1118.0409375 207.746875 1117.081875 206.84375 1116.09375 C203.5863524 1112.54022535 200.29295488 1109.02054571 197 1105.5 C192.81020722 1101.02063191 188.63791134 1096.52736182 184.5 1092 C180.38169726 1087.49466147 176.23117698 1083.02125073 172.0625 1078.5625 C165.18891483 1071.21062241 158.35964235 1063.81883527 151.54101562 1056.41601562 C145.71436659 1050.09149538 139.87153586 1043.78289688 134 1037.5 C127.14817798 1030.1681379 120.33966877 1022.79715043 113.54101562 1015.41601562 C107.69439195 1009.06981396 101.83056438 1002.74062812 95.9375 996.4375 C90.87103616 991.0184907 85.84509 985.56548025 80.83984375 980.08984375 C77.60353772 976.55943252 74.33331669 973.06091361 71.0625 969.5625 C64.18891483 962.21062241 57.35964235 954.81883527 50.54101562 947.41601562 C49.06939814 945.81865246 47.59735149 944.22168663 46.125 942.625 C45.63717041 942.09592041 45.14934082 941.56684082 44.64672852 941.02172852 C41.32207734 937.42042832 37.98070689 933.83517795 34.63110352 930.25708008 C32.83676389 928.33844468 31.04687294 926.41574504 29.2578125 924.4921875 C27.32973995 922.41931459 25.38952206 920.36354427 23.4296875 918.3203125 C6.66558215 900.50479985 -0.34195834 880.4040397 -0.24609566 856.16679192 C-0.24757693 854.66970808 -0.24993622 853.17262491 -0.25308865 851.67554367 C-0.25920763 847.56542304 -0.25289241 843.45540185 -0.24453239 839.34528865 C-0.23764902 834.87250033 -0.24240843 830.39972183 -0.24568737 825.9269315 C-0.24983149 818.0892635 -0.24655301 810.25162588 -0.23841095 802.41396141 C-0.22633767 790.75965699 -0.22573965 779.10537171 -0.22749493 767.45106218 C-0.23012251 747.84638586 -0.22344073 728.24172302 -0.21146011 708.63705063 C-0.19962756 689.22493295 -0.19192852 669.81282088 -0.18975449 650.40069962 C-0.18961701 649.19387897 -0.18947953 647.98705832 -0.18933788 646.74366735 C-0.18866122 640.61487782 -0.18805845 634.48608829 -0.18748413 628.35729875 C-0.1832829 584.94294795 -0.16980703 541.52860448 -0.15087891 498.11425781 C-0.13251129 455.93684936 -0.11834345 413.75944291 -0.10986328 371.58203125 C-0.10960023 370.28202381 -0.10933718 368.98201637 -0.10906615 367.64261477 C-0.10642912 354.58744965 -0.10387749 341.53228452 -0.10138843 328.47711937 C-0.09631596 301.88205449 -0.09067345 275.28698974 -0.08468628 248.69192505 C-0.0844117 247.4691171 -0.08413712 246.24630914 -0.08385422 244.9864464 C-0.06545175 163.3242945 -0.03360755 81.66214687 0 0 Z " fill="#F4F4F4" transform="translate(1590,940)"/>
<path d="M0 0 C11.55 0 23.1 0 35 0 C35.00238835 3.33371075 35.00477671 6.66742149 35.00723743 10.10215378 C35.04937317 68.43906155 35.09531993 126.77596531 35.15898132 185.112854 C35.16047467 186.48274847 35.16047467 186.48274847 35.16199819 187.88031758 C35.1836568 207.72804898 35.2059795 227.57577958 35.22898628 247.42350946 C35.24026478 257.15685122 35.25139654 266.89019314 35.26245117 276.62353516 C35.26410502 278.07641086 35.26410502 278.07641086 35.26579228 279.55863758 C35.30145992 310.95243057 35.32743767 342.34622249 35.34838969 373.74002847 C35.36997204 406.00161736 35.40133166 438.26318234 35.44499113 470.52474927 C35.45115336 475.08161627 35.45720384 479.63848341 35.46318626 484.19535065 C35.46436715 485.09220623 35.46554803 485.98906182 35.46676469 486.91309485 C35.48548516 501.34917407 35.49390081 515.78524178 35.49846124 530.22133165 C35.50326615 544.73496957 35.51893126 559.2485636 35.54566566 573.76217797 C35.56121884 582.38464841 35.56846139 591.0070323 35.56376929 599.62951599 C35.56145447 605.39234861 35.5700113 611.15509955 35.58732411 616.91790645 C35.59687428 620.19957875 35.60011974 623.48103573 35.59339563 626.76272044 C35.58687757 630.30458304 35.59880076 633.84593258 35.61523914 637.38775253 C35.6058241 638.90229657 35.6058241 638.90229657 35.59621885 640.44743747 C35.76164468 659.81734497 44.14916482 671.92235139 57.42759323 684.98680878 C58.46503614 686.00654156 58.46503614 686.00654156 59.5234375 687.046875 C60.95403798 688.470671 62.3835956 689.89551552 63.81216431 691.3213501 C67.55602674 695.05187691 71.31506429 698.76674543 75.07720947 702.4788208 C78.13543247 705.50162569 81.18245712 708.53558064 84.22897911 711.57017136 C87.88578077 715.21211978 91.54769745 718.84890393 95.2109375 722.484375 C95.90026745 723.16879417 96.5895974 723.85321335 97.29981613 724.5583725 C106.3862719 733.57944828 106.3862719 733.57944828 115.9112854 742.12872314 C120.64092994 746.3660059 125.05432348 750.94866676 129.52787781 755.45271301 C131.44376469 757.38151763 133.36289273 759.30704603 135.28283691 761.23181152 C140.04777408 766.01002439 144.80721655 770.79369816 149.5668335 775.57720947 C153.60015475 779.63035284 157.63558074 783.68137892 161.67375183 787.72969055 C163.55236917 789.61472776 165.42791748 791.50278098 167.30334473 793.39099121 C173.97448503 800.13379383 173.97448503 800.13379383 181 806.5 C186.47557946 811.16674821 191.46154998 816.35185289 196.52787781 821.45271301 C198.44376469 823.38151763 200.36289273 825.30704603 202.28283691 827.23181152 C207.04777408 832.01002439 211.80721655 836.79369816 216.5668335 841.57720947 C220.60015475 845.63035284 224.63558074 849.68137892 228.67375183 853.72969055 C230.55236917 855.61472776 232.42791748 857.50278098 234.30334473 859.39099121 C240.97448503 866.13379383 240.97448503 866.13379383 248 872.5 C253.47557946 877.16674821 258.46154998 882.35185289 263.52787781 887.45271301 C265.44376469 889.38151763 267.36289273 891.30704603 269.28283691 893.23181152 C274.04777408 898.01002439 278.80721655 902.79369816 283.5668335 907.57720947 C287.60015475 911.63035284 291.63558074 915.68137892 295.67375183 919.72969055 C297.55236917 921.61472776 299.42791748 923.50278098 301.30334473 925.39099121 C306.52586459 930.63567986 311.7258311 935.83845421 317.38867188 940.61476135 C320.24228712 943.06797871 322.86255433 945.75632118 325.5 948.4375 C326.03625 948.97826172 326.5725 949.51902344 327.125 950.07617188 C328.41904036 951.38176617 329.70988174 952.69052996 331 954 C329.4152642 957.86328627 326.94043113 960.28876923 323.9921875 963.203125 C323.50670441 963.6857782 323.02122131 964.1684314 322.52102661 964.66571045 C320.97700134 966.19858562 319.42615176 967.72434004 317.875 969.25 C316.82375991 970.29120361 315.77297343 971.33286541 314.72265625 972.375 C312.15366996 974.92199464 309.57851839 977.46265177 307 980 C288.42138888 964.30986418 271.56976025 946.66321994 254.4375 929.4375 C250.03399751 925.01019555 245.62873385 920.58466999 241.21925545 916.16331673 C239.48020366 914.41787493 237.7442304 912.66941318 236.00840759 910.92076111 C229.70254647 904.5627749 229.70254647 904.5627749 223.06079102 898.56079102 C217.56873185 893.86857687 212.55902734 888.6688647 207.47212219 883.54728699 C205.55623531 881.61848237 203.63710727 879.69295397 201.71716309 877.76818848 C196.95222592 872.98997561 192.19278345 868.20630184 187.4331665 863.42279053 C183.39984525 859.36964716 179.36441926 855.31862108 175.32624817 851.27030945 C173.44763083 849.38527224 171.57208252 847.49721902 169.69665527 845.60900879 C163.02551497 838.86620617 163.02551497 838.86620617 156 832.5 C150.52442054 827.83325179 145.53845002 822.64814711 140.47212219 817.54728699 C138.55623531 815.61848237 136.63710727 813.69295397 134.71716309 811.76818848 C129.95222592 806.98997561 125.19278345 802.20630184 120.4331665 797.42279053 C116.39984525 793.36964716 112.36441926 789.31862108 108.32624817 785.27030945 C106.44763083 783.38527224 104.57208252 781.49721902 102.69665527 779.60900879 C97.64373856 774.53461343 92.59672738 769.56424204 87.14401245 764.91693115 C81.70090074 760.0503221 76.63845325 754.75808535 71.48828125 749.5859375 C70.18911892 748.28490581 68.88973246 746.9840979 67.59013367 745.6835022 C64.1885199 742.27809394 60.78991839 738.8696952 57.39196777 735.46063232 C53.93695655 731.99537877 50.47910616 728.53296091 47.02148438 725.0703125 C41.43822874 719.47829925 35.85667094 713.88459834 30.27745056 708.28855896 C27.93619252 705.94042037 25.59335354 703.59392828 23.24699402 701.25088501 C3.99654262 681.9670987 -0.37781368 659.20423727 -0.38724393 632.86982822 C-0.37868742 630.35437999 -0.36985069 627.8389327 -0.36076355 625.32348633 C-0.36207321 622.62029768 -0.36457661 619.91713382 -0.36853105 617.21395016 C-0.37471771 611.35724714 -0.36988051 605.50063606 -0.35761642 599.64394379 C-0.3394315 590.93542097 -0.33861639 582.22695551 -0.34124239 573.51841716 C-0.34517466 558.86578638 -0.33519582 544.21319633 -0.31719017 529.56057739 C-0.29941736 515.06014809 -0.28788795 500.55973577 -0.28463173 486.05929565 C-0.28442551 485.15649739 -0.28421929 484.25369912 -0.28400682 483.32354333 C-0.28299177 478.7383774 -0.28208764 474.15321146 -0.2812262 469.5680455 C-0.27493095 437.12152401 -0.25473562 404.67502465 -0.22631836 372.22851562 C-0.19874945 340.7141939 -0.17750626 309.19987825 -0.16479492 277.68554688 C-0.16420305 276.22751682 -0.16420305 276.22751682 -0.16359923 274.74003161 C-0.15964355 264.97828883 -0.15581612 255.21654599 -0.15208265 245.45480311 C-0.14447474 225.57037298 -0.13601099 205.68594323 -0.12702942 185.80151367 C-0.12661755 184.88733153 -0.12620568 183.97314939 -0.12578133 183.03126477 C-0.098196 122.02083381 -0.05043123 61.01041578 0 0 Z " fill="#F4F4F4" transform="translate(1289,1201)"/>
<path d="M0 0 C11.55 0 23.1 0 35 0 C35.06825897 62.41051239 35.13216782 124.82102777 35.16937256 187.23156738 C35.16992479 188.15555603 35.17047702 189.07954469 35.17104598 190.031533 C35.18301816 210.11325697 35.19409881 230.19498134 35.20426132 250.27670631 C35.20925058 260.12506341 35.2144368 269.9734204 35.21972656 279.82177734 C35.2202496 280.80179685 35.22077263 281.78181635 35.22131152 282.79153342 C35.23835085 314.54540099 35.26839156 346.29924006 35.30518888 378.05309037 C35.34294042 410.68971772 35.36754669 443.3263293 35.37565996 475.96297812 C35.37681255 480.57478066 35.37811509 485.18658315 35.37950897 489.79838562 C35.37991351 491.15986227 35.37991351 491.15986227 35.38032622 492.54884349 C35.38504943 507.14780599 35.40359177 521.74671966 35.42732814 536.34566227 C35.45090687 551.02962846 35.45986447 565.71354634 35.45400551 580.39753079 C35.45096783 589.11696397 35.45903259 597.83622005 35.48319017 606.55562118 C35.49824247 612.38816173 35.49861778 618.22058694 35.48732725 624.0531356 C35.48131593 627.37147224 35.48367318 630.68920548 35.49953273 634.00754911 C35.57426738 650.61411594 35.2867442 666.28347371 27.3125 681.3125 C27.02439453 681.91126953 26.73628906 682.51003906 26.43945312 683.12695312 C21.19338802 693.39286698 12.5373541 701.76367243 4.43359375 709.796875 C3.55526382 710.6747467 2.6769339 711.55261841 1.77198792 712.45709229 C-0.06849513 714.29457945 -1.91138228 716.12966156 -3.7565918 717.96240234 C-6.56423776 720.75172642 -9.36373338 723.54903524 -12.16210938 726.34765625 C-13.96306988 728.14370236 -15.76448663 729.93929114 -17.56640625 731.734375 C-18.39370743 732.56056335 -19.22100861 733.38675171 -20.07337952 734.23797607 C-23.54811061 737.68468854 -27.02553834 741.07047096 -30.75170898 744.24511719 C-36.29201989 749.02023727 -41.37679773 754.26652295 -46.52787781 759.45271301 C-48.44376469 761.38151763 -50.36289273 763.30704603 -52.28283691 765.23181152 C-56.35805972 769.31838841 -60.42932718 773.40889147 -64.5 777.5 C-69.2220532 782.24575898 -73.94577069 786.98983664 -78.67375183 791.72969055 C-80.55236917 793.61472776 -82.42791748 795.50278098 -84.30334473 797.39099121 C-89.35831399 802.4674231 -94.40774042 807.438375 -99.8626709 812.08752441 C-104.61094702 816.33626746 -109.03917132 820.93341132 -113.52787781 825.45271301 C-115.44376469 827.38151763 -117.36289273 829.30704603 -119.28283691 831.23181152 C-123.35805972 835.31838841 -127.42932718 839.40889147 -131.5 843.5 C-136.2220532 848.24575898 -140.94577069 852.98983664 -145.67375183 857.72969055 C-147.55236917 859.61472776 -149.42791748 861.50278098 -151.30334473 863.39099121 C-156.35831399 868.4674231 -161.40774042 873.438375 -166.8626709 878.08752441 C-171.61094702 882.33626746 -176.03917132 886.93341132 -180.52787781 891.45271301 C-182.44376469 893.38151763 -184.36289273 895.30704603 -186.28283691 897.23181152 C-190.35805972 901.31838841 -194.42932718 905.40889147 -198.5 909.5 C-203.2220532 914.24575898 -207.94577069 918.98983664 -212.67375183 923.72969055 C-214.55236917 925.61472776 -216.42791748 927.50278098 -218.30334473 929.39099121 C-223.46123035 934.57078573 -228.61216493 939.6645063 -234.18054199 944.40762329 C-237.68800977 947.47733415 -240.93639996 950.81462539 -244.21875 954.12109375 C-245.33376892 955.23823509 -245.33376892 955.23823509 -246.47131348 956.37794495 C-248.81659301 958.72876745 -251.15834836 961.08306431 -253.5 963.4375 C-255.10132961 965.04385199 -256.70288998 966.64997397 -258.3046875 968.25585938 C-262.20579473 972.16791985 -266.1040242 976.08282952 -270 980 C-276.82569186 976.72387893 -281.34958107 970.65762923 -286.22265625 965 C-289.01120286 961.86211898 -291.99181238 958.92589677 -295 956 C-293.50803467 952.52596448 -291.52720394 950.27923861 -288.86083984 947.61791992 C-288.00589935 946.7599028 -287.15095886 945.90188568 -286.27011108 945.01786804 C-284.87957016 943.63810539 -284.87957016 943.63810539 -283.4609375 942.23046875 C-282.49610483 941.26682985 -281.53164336 940.30281916 -280.5675354 939.3384552 C-278.54468385 937.31716675 -276.51852316 935.29927615 -274.48974609 933.28393555 C-271.90941406 930.72049023 -269.33560941 928.15061585 -266.76408958 925.57833385 C-264.77046791 923.58498648 -262.77423178 921.59427438 -260.7771492 919.60439491 C-259.3716496 918.20356227 -257.96758982 916.80128547 -256.56356812 915.39897156 C-252.85912623 911.72157516 -249.16609191 908.08461211 -245.19189453 904.69848633 C-239.66716429 899.94646653 -234.604188 894.71433317 -229.47212219 889.54728699 C-227.55623531 887.61848237 -225.63710727 885.69295397 -223.71716309 883.76818848 C-219.64194028 879.68161159 -215.57067282 875.59110853 -211.5 871.5 C-206.7779468 866.75424102 -202.05422931 862.01016336 -197.32624817 857.27030945 C-195.44763083 855.38527224 -193.57208252 853.49721902 -191.69665527 851.60900879 C-186.64168601 846.5325769 -181.59225958 841.561625 -176.1373291 836.91247559 C-171.38905298 832.66373254 -166.96082868 828.06658868 -162.47212219 823.54728699 C-160.55623531 821.61848237 -158.63710727 819.69295397 -156.71716309 817.76818848 C-152.64194028 813.68161159 -148.57067282 809.59110853 -144.5 805.5 C-139.7779468 800.75424102 -135.05422931 796.01016336 -130.32624817 791.27030945 C-128.44763083 789.38527224 -126.57208252 787.49721902 -124.69665527 785.60900879 C-119.64168601 780.5325769 -114.59225958 775.561625 -109.1373291 770.91247559 C-104.38905298 766.66373254 -99.96082868 762.06658868 -95.47212219 757.54728699 C-93.55623531 755.61848237 -91.63710727 753.69295397 -89.71716309 751.76818848 C-85.64194028 747.68161159 -81.57067282 743.59110853 -77.5 739.5 C-72.7779468 734.75424102 -68.05422931 730.01016336 -63.32624817 725.27030945 C-61.44763083 723.38527224 -59.57208252 721.49721902 -57.69665527 719.60900879 C-52.51656541 714.4068189 -47.34500219 709.28017 -41.75238037 704.51638794 C-38.66438956 701.84425574 -35.7717025 698.97399075 -32.8671875 696.10546875 C-32.22685577 695.47320877 -31.58652405 694.84094879 -30.92678833 694.18952942 C-29.58597804 692.86243008 -28.24662543 691.53385647 -26.90869141 690.20385742 C-25.55376943 688.860484 -24.1943851 687.52159626 -22.83056641 686.18725586 C-11.43557644 675.03759946 -1.25426207 664.4121281 -0.62099248 647.57095993 C-0.60393566 645.57117134 -0.60294946 643.57120227 -0.61523914 641.57137871 C-0.61008924 640.45733225 -0.60493933 639.34328579 -0.59963337 638.19548035 C-0.58602753 634.46589006 -0.5936963 630.73665249 -0.60127258 627.00704956 C-0.59583281 624.30491253 -0.58920695 621.60280201 -0.58113068 618.90067399 C-0.56596103 613.02769774 -0.5618364 607.15479502 -0.56500816 601.28180122 C-0.56967406 592.5489419 -0.55716931 583.81616569 -0.54117843 575.08332277 C-0.51476185 560.39213674 -0.5022226 545.70096957 -0.49761391 531.00976181 C-0.49300582 516.4652877 -0.48221657 501.92083977 -0.46318626 487.37637711 C-0.46200614 486.47178005 -0.46082601 485.567183 -0.45961012 484.63517392 C-0.45358463 480.04111406 -0.44744885 475.44705435 -0.44127061 470.8529947 C-0.3977175 438.31997213 -0.36800186 405.7869502 -0.34643555 373.25390625 C-0.3254535 341.65005554 -0.29819637 310.04622042 -0.26245117 278.44238281 C-0.26135169 277.46807956 -0.26025222 276.49377631 -0.25911942 275.48994873 C-0.24807101 265.70552464 -0.23689511 255.9211007 -0.2256258 246.13667687 C-0.20267217 226.20497981 -0.18056945 206.27328184 -0.15898132 186.34158325 C-0.1579877 185.42517188 -0.15699409 184.50876052 -0.15597036 183.56457911 C-0.0897246 122.37639867 -0.04354341 61.18820024 0 0 Z " fill="#F4F4F4" transform="translate(3157,1201)"/>
<path d="M0 0 C11.55 0 23.1 0 35 0 C35.03412595 67.85883861 35.06608076 135.71767795 35.08468628 203.57652283 C35.08496239 204.58100458 35.08523851 205.58548633 35.08552299 206.62040692 C35.09150893 228.45099152 35.09704928 250.28157621 35.10213066 272.11216104 C35.10462531 282.81801949 35.10721842 293.52387792 35.10986328 304.22973633 C35.1101248 305.29509263 35.11038632 306.36044892 35.11065576 307.45808874 C35.11917703 341.98353749 35.13419859 376.50897968 35.15259444 411.03442445 C35.17146568 446.51656614 35.1837723 481.9987042 35.18782998 517.48085083 C35.18840628 522.49353005 35.18905756 527.50620926 35.18975449 532.51888847 C35.18995676 533.99872562 35.18995676 533.99872562 35.19016311 535.50845847 C35.19252568 551.38333187 35.20179949 567.25819406 35.21366407 583.13306289 C35.22544696 599.09628099 35.22993385 615.05948798 35.22700275 631.02271027 C35.2254827 640.50437226 35.2295273 649.98599356 35.24159509 659.4676482 C35.24911152 665.80700096 35.2493156 672.14632717 35.24366363 678.48568179 C35.2406531 682.09415198 35.24073659 685.7025454 35.24976636 689.31100727 C35.33384206 724.98402319 27.8456175 746.82241168 7.80615234 776.17089844 C5.16922234 780.03395089 2.54363522 783.90462369 -0.07907104 787.77734375 C-1.32169559 789.61199481 -2.56612502 791.44542536 -3.81277466 793.27734375 C-8.57360526 800.29524884 -13.13566879 807.42926495 -17.63859558 814.61477661 C-23.69835514 824.28080321 -30.16673771 833.67995921 -36.5625 843.125 C-46.66145486 858.04025669 -56.67098721 873.00881775 -66.5625 888.0625 C-77.54772863 904.78049349 -88.60433022 921.44873934 -99.72875977 938.07446289 C-105.91344293 947.32430402 -112.02747624 956.61159159 -118 966 C-123.74367147 963.91365439 -128.55933279 960.59022699 -133.63110352 957.23291016 C-135.31664944 956.12226584 -137.01430555 955.0319709 -138.71289062 953.94140625 C-140.30327148 952.89146484 -140.30327148 952.89146484 -141.92578125 951.8203125 C-142.89942627 951.18367676 -143.87307129 950.54704102 -144.8762207 949.89111328 C-145.57706787 949.2670459 -146.27791504 948.64297852 -147 948 C-147 943.96799192 -146.87526739 943.31229057 -144.7980957 940.18920898 C-144.31002441 939.44579758 -143.82195313 938.70238617 -143.3190918 937.93644714 C-142.77679932 937.13113052 -142.23450684 936.3258139 -141.67578125 935.49609375 C-141.11052734 934.64143021 -140.54527344 933.78676666 -139.96289062 932.90620422 C-138.08832781 930.07727843 -136.20056364 927.25742938 -134.3125 924.4375 C-133.00412973 922.46887073 -131.69644015 920.49978892 -130.3894043 918.53027344 C-119.92291574 902.78292768 -109.35282179 887.10334622 -98.72192383 871.46655273 C-93.68883252 864.05162926 -88.70469264 856.62855825 -84 849 C-78.74461724 840.47850953 -73.13639595 832.20803464 -67.50836182 823.92956543 C-53.38089283 803.13969705 -39.49552571 782.19491458 -25.71609497 761.173172 C-22.87505335 756.84216669 -20.02129104 752.52067336 -17.13470459 748.21987915 C-16.0381299 746.58599279 -14.94643703 744.9488332 -13.85498047 743.31152344 C-12.64819519 741.50272839 -11.43347678 739.6991764 -10.20751953 737.90332031 C-2.38626005 726.11126756 -0.84876977 714.83207083 -0.8613348 701.00347996 C-0.85707147 699.18564894 -0.85707147 699.18564894 -0.85272202 697.33109406 C-0.84583038 693.96487464 -0.84338085 690.59870488 -0.8427946 687.23248196 C-0.84106357 683.57128512 -0.83357709 679.91009932 -0.82681805 676.24890894 C-0.81576461 669.83157145 -0.80839066 663.41423789 -0.80341911 656.99689293 C-0.79600996 647.45452621 -0.78292607 637.91217319 -0.76867336 628.36981454 C-0.74485941 612.31827903 -0.72565666 596.26674109 -0.70907402 580.21519661 C-0.69263802 564.32015715 -0.67415738 548.42512225 -0.65294075 532.53008842 C-0.65162314 531.54210435 -0.65030554 530.55412027 -0.648948 529.53619728 C-0.642246 524.51880793 -0.63550741 519.50141863 -0.62875474 514.48402935 C-0.58098061 478.93784364 -0.53779877 443.39165368 -0.49731445 407.84545898 C-0.45797187 373.31095064 -0.41655111 338.7764458 -0.37231445 304.24194336 C-0.37095192 303.17760218 -0.36958939 302.113261 -0.36818558 301.01666705 C-0.3545003 290.32820019 -0.34077276 279.63973339 -0.32701423 268.95126663 C-0.29898703 247.1772638 -0.27124201 225.40326061 -0.2436676 203.6292572 C-0.2423994 202.62810463 -0.2411312 201.62695206 -0.23982458 200.59546153 C-0.15515624 133.73031339 -0.07714205 66.86515719 0 0 Z " fill="#F4F4F4" transform="translate(3519,649)"/>
<path d="M0 0 C11.55 0 23.1 0 35 0 C35.00146656 3.68324275 35.00293312 7.3664855 35.00444412 11.16134167 C35.03056363 75.61398201 35.06177202 140.06661833 35.11663818 204.51924133 C35.11749569 205.52822841 35.1183532 206.53721548 35.1192367 207.57677793 C35.13790234 229.50479895 35.15745485 251.4328191 35.17792095 273.36083851 C35.18795213 284.11433816 35.19778733 294.86783797 35.20751953 305.62133789 C35.20849134 306.69144023 35.20946314 307.76154258 35.2104644 308.86407226 C35.24187144 343.54900116 35.26033751 378.23392228 35.27209247 412.91886294 C35.28424059 448.56222305 35.30944475 484.20555066 35.35107614 519.84888911 C35.35695023 524.88329157 35.36267507 529.9176942 35.36830902 534.95209694 C35.36942248 535.94293933 35.37053594 536.93378173 35.37168314 537.95464965 C35.38922273 553.90430498 35.39299967 569.85393531 35.39162921 585.80359899 C35.39054515 601.83850291 35.40396205 617.87334278 35.43216428 633.9082224 C35.44847939 643.43477 35.45369262 652.9611727 35.44297175 662.48772905 C35.43690316 668.85447218 35.44534833 675.22109022 35.4654923 681.58780407 C35.47655169 685.21360364 35.4813979 688.83910888 35.46851245 692.46490916 C35.45475492 696.37767905 35.47206589 700.28997378 35.49219131 704.2027235 C35.48328761 705.31888801 35.4743839 706.43505251 35.46521038 707.58504018 C35.57195831 718.41055313 38.28923369 728.54454166 44.39453125 737.54296875 C44.8220015 738.19992233 45.24947174 738.85687592 45.68989563 739.53373718 C47.10891659 741.70145448 48.55226307 743.85137034 50 746 C51.05271422 747.57884373 52.10528115 749.15778567 53.15771484 750.73681641 C56.03057899 755.02985064 58.92718537 759.30638899 61.83056641 763.5788269 C71.48933394 777.79792069 81.08117326 792.05826953 90.5 806.4375 C90.954888 807.13162994 91.409776 807.82575989 91.87844849 808.54092407 C94.2415009 812.14739871 96.60297511 815.75490387 98.96386719 819.36279297 C104.67182797 828.0833536 110.39500205 836.79390643 116.125 845.5 C116.72777771 846.41599976 117.33055542 847.33199951 117.95159912 848.27575684 C128.57947738 864.41634382 139.34752069 880.4599314 150.19580078 896.453125 C156.87406472 906.30646233 163.42819709 916.22699809 169.86401367 926.24026489 C171.38506715 928.5965003 172.93017576 930.93636132 174.48046875 933.2734375 C174.94130859 933.97210937 175.40214844 934.67078125 175.87695312 935.390625 C176.78885469 936.77138803 177.70591427 938.14875265 178.62695312 939.5234375 C182 944.66331845 182 944.66331845 182 948 C180.09657253 949.57290361 178.25423478 950.91708694 176.19921875 952.265625 C175.60704056 952.66328064 175.01486237 953.06093628 174.40473938 953.47064209 C173.14961298 954.30943625 171.89096783 955.14298513 170.62915039 955.97167969 C168.69586228 957.24449454 166.77831517 958.53873933 164.86132812 959.8359375 C163.64151065 960.64716663 162.42083473 961.45710674 161.19921875 962.265625 C160.62411057 962.65510315 160.04900238 963.0445813 159.45646667 963.44586182 C157.8190918 964.50878906 157.8190918 964.50878906 155 966 C151.5816152 964.8605384 151.23788937 964.27951822 149.34643555 961.37109375 C148.83618332 960.59544067 148.32593109 959.8197876 147.80021667 959.02062988 C147.25126236 958.16819702 146.70230804 957.31576416 146.13671875 956.4375 C145.55743118 955.55251831 144.97814362 954.66753662 144.38130188 953.7557373 C142.4760165 950.84188505 140.58195428 947.9209032 138.6875 945 C137.36227704 942.97008331 136.03609718 940.94079103 134.70898438 938.91210938 C132.70039614 935.84156487 130.69233169 932.7706956 128.68722534 929.69787598 C123.18089318 921.26057981 117.60626358 912.87108013 112 904.5 C106.03797969 895.58708356 100.1053634 886.65567512 94.21484375 877.6953125 C93.62451859 876.79740494 93.03419342 875.89949738 92.42597961 874.97438049 C91.21082877 873.12589281 89.9957056 871.27738695 88.78060913 869.42886353 C88.17238312 868.50358856 87.5641571 867.5783136 86.9375 866.625 C86.02818222 865.24155899 86.02818222 865.24155899 85.10049438 863.83016968 C75.12539479 848.66195464 65.00567444 833.59619837 54.82653809 818.56436157 C47.18427633 807.27340907 39.63549757 795.94522342 32.35864258 784.41455078 C29.20637598 779.4234259 26.00044679 774.48017867 22.69921875 769.5859375 C21.97645752 768.51432373 21.25369629 767.44270996 20.5090332 766.33862305 C19.14553884 764.32528113 17.77615458 762.31590724 16.39916992 760.31176758 C10.55546679 751.6857833 5.36743485 742.7544454 2.6875 732.625 C2.22923828 730.94277344 2.22923828 730.94277344 1.76171875 729.2265625 C0.07094114 722.06460195 -0.13995612 715.35053191 -0.12304783 708.01720619 C-0.12420167 706.79465407 -0.12535552 705.57210195 -0.12654433 704.3125028 C-0.12873877 700.9117059 -0.12643854 697.51096525 -0.12226619 694.1101737 C-0.11883216 690.41324324 -0.12120276 686.71631581 -0.12284368 683.01938474 C-0.12491812 676.53774325 -0.12327244 670.05611094 -0.11920547 663.57447052 C-0.11317482 653.93648152 -0.11286927 644.29849831 -0.11374746 634.66050776 C-0.11506199 618.44852182 -0.11171759 602.23653996 -0.10573006 586.02455521 C-0.0998157 569.96960047 -0.09596465 553.91464743 -0.09487724 537.85969162 C-0.0948085 536.86193438 -0.09473976 535.86417713 -0.09466894 534.83618482 C-0.09433061 529.76920624 -0.09402923 524.70222765 -0.09374207 519.63524906 C-0.09164092 483.73355681 -0.08490151 447.83186678 -0.07543945 411.93017578 C-0.06625705 377.04931653 -0.05917244 342.16845788 -0.05493164 307.28759766 C-0.05480011 306.21266656 -0.05466859 305.13773546 -0.05453308 304.03023069 C-0.05321457 293.23546047 -0.05193876 282.44069024 -0.05069422 271.64592001 C-0.04815791 249.65517182 -0.04533666 227.66442367 -0.04234314 205.67367554 C-0.04220585 204.66254725 -0.04206856 203.65141897 -0.04192711 202.60965043 C-0.0327244 135.07309935 -0.01680218 67.53654956 0 0 Z " fill="#F4F4F4" transform="translate(928,649)"/>
<path d="M0 0 C3.01592177 2.68818655 5.9251436 5.47571827 8.83203125 8.28125 C9.68410156 9.07015625 10.53617188 9.8590625 11.4140625 10.671875 C39.91276449 37.77930178 53.11532703 77.17350038 54.08203125 115.78125 C53.26353785 148.41867449 43.7059991 181.6579757 22.83203125 207.28125 C22.40776855 207.80412598 21.98350586 208.32700195 21.54638672 208.86572266 C-5.30809718 241.78750736 -41.70627529 261.48163518 -84.04296875 266.03125 C-85.74981259 266.14093746 -87.45859909 266.22291839 -89.16796875 266.28125 C-90.26367188 266.32121094 -91.359375 266.36117188 -92.48828125 266.40234375 C-132.62044465 267.12659723 -171.1247147 253.21428792 -200.16796875 225.28125 C-200.66651367 224.81380371 -201.16505859 224.34635742 -201.67871094 223.86474609 C-222.2881916 204.50185712 -235.73400375 180.69695971 -243.04296875 153.40625 C-243.2339917 152.69509033 -243.42501465 151.98393066 -243.62182617 151.2512207 C-246.524514 139.66021555 -247.53609595 128.01570715 -247.48046875 116.09375 C-247.4755542 114.83143555 -247.47063965 113.56912109 -247.46557617 112.26855469 C-246.943431 70.29343793 -228.68663606 34.254287 -199.66015625 4.73046875 C-146.21822139 -46.5051477 -55.69004829 -48.44707321 0 0 Z M-189.16796875 20.28125 C-189.85246094 20.89484375 -190.53695312 21.5084375 -191.2421875 22.140625 C-213.39345309 43.0010243 -227.90390741 75.74079633 -229.29077148 105.95678711 C-230.35022031 144.75708776 -219.16037993 178.74515517 -192.16796875 207.28125 C-191.3584375 208.16683594 -190.54890625 209.05242187 -189.71484375 209.96484375 C-166.73164119 234.22106801 -133.43742795 246.88554007 -100.45703125 248.40625 C-68.85572586 249.09888135 -36.01699474 238.32689815 -12.16796875 217.28125 C-11.33910156 216.57226562 -10.51023437 215.86328125 -9.65625 215.1328125 C16.80102515 192.03840693 32.96818576 159.64638764 35.49047852 124.64916992 C37.52249174 89.29342789 26.11291956 55.05902924 2.83203125 28.28125 C-19.96211839 2.86520472 -50.92538878 -13.66754247 -85.16796875 -16.71875 C-124.80270489 -18.73163395 -159.92566086 -6.61150202 -189.16796875 20.28125 Z " fill="#F4F4F4" transform="translate(3991.16796875,154.71875)"/>
<path d="M0 0 C34.32 0 68.64 0 104 0 C104 33.99 104 67.98 104 103 C69.68 103 35.36 103 0 103 C0 69.01 0 35.02 0 0 Z " fill="#F4F4F4" transform="translate(2197,2167)"/>
<path d="M0 0 C34.32 0 68.64 0 104 0 C104 33.99 104 67.98 104 103 C69.68 103 35.36 103 0 103 C0 69.01 0 35.02 0 0 Z " fill="#F4F4F4" transform="translate(2197,2048)"/>
<path d="M0 0 C10.89 0 21.78 0 33 0 C37.31969144 14.39897145 41.35365971 28.84820675 45.1824646 43.38409424 C45.68572159 45.29431873 46.19062447 47.20411036 46.69717407 49.11346436 C47.41672677 51.82948344 48.12936353 54.54722037 48.83984375 57.265625 C49.05826935 58.08763397 49.27669495 58.90964294 49.5017395 59.75656128 C49.69960052 60.52042145 49.89746155 61.28428162 50.10131836 62.07128906 C50.27561874 62.73614319 50.44991913 63.40099731 50.62950134 64.08599854 C51 66 51 66 51 70 C51.66 70 52.32 70 53 70 C53.13728516 68.44804932 53.13728516 68.44804932 53.27734375 66.86474609 C54.08014063 60.49036431 55.89025372 54.35449861 57.5625 48.1640625 C57.91779972 46.83517989 58.27269198 45.50618827 58.62719727 44.17709351 C59.36703085 41.40770658 60.11033687 38.6392849 60.85644531 35.87158203 C61.81323065 32.32204551 62.76338876 28.77077776 63.71125793 25.21885109 C64.44204238 22.48179377 65.17517787 19.74537101 65.90914917 17.00916672 C66.26047838 15.69913725 66.61133132 14.38897996 66.96170044 13.07869339 C67.45010058 11.25450021 67.94176749 9.4311826 68.43359375 7.60791016 C68.71259521 6.57058746 68.99159668 5.53326477 69.27905273 4.46450806 C70 2 70 2 71 0 C81.89 0 92.78 0 104 0 C104 35.97 104 71.94 104 109 C97.07 109 90.14 109 83 109 C82.67 84.58 82.34 60.16 82 35 C76.11998831 58.23076853 76.11998831 58.23076853 70.24243164 81.4621582 C69.10437012 85.95544434 69.10437012 85.95544434 68.5712738 88.05900574 C68.19923666 89.52793567 67.82764526 90.99697854 67.45640564 92.46611023 C66.89394169 94.69162233 66.33006359 96.91677177 65.76586914 99.1418457 C65.44832169 100.39649124 65.13077423 101.65113678 64.80360413 102.94380188 C64.26796182 104.98091065 63.66608744 107.00173767 63 109 C55.74 109 48.48 109 41 109 C36.55358809 93.37379525 32.6031541 77.64164108 28.6875 61.875 C26.480625 53.00625 24.27375 44.1375 22 35 C21.67 59.42 21.34 83.84 21 109 C14.07 109 7.14 109 0 109 C0 73.03 0 37.06 0 0 Z " fill="#F4F4F4" transform="translate(3888,223)"/>
<path d="M0 0 C28.38 0 56.76 0 86 0 C86 6.6 86 13.2 86 20 C75.44 20 64.88 20 54 20 C54 49.37 54 78.74 54 109 C46.74 109 39.48 109 32 109 C32 79.63 32 50.26 32 20 C21.44 20 10.88 20 0 20 C0 13.4 0 6.8 0 0 Z " fill="#F4F4F4" transform="translate(3789,223)"/>
</svg>
